<svg width="32" height="32" viewBox="0 0 32 32" fill="none" xmlns="http://www.w3.org/2000/svg">
<rect width="32" height="32" fill="#6941C6"/>
<path d="M3.37499 11.4975C5.98404 8.75163 10.2241 8.61349 12.9884 11.1791C15.8184 13.8053 18.3762 17.0986 21.2045 19.7687C23.4134 21.6907 26.866 20.4105 27.3942 17.4524C28.0457 13.8053 24.1737 11.2279 21.3358 13.46C21.0557 13.6807 20.7275 14.1254 20.4843 14.2989C20.4362 14.3326 20.401 14.3696 20.337 14.3444L18.1937 12.0534C19.2406 10.8337 20.6027 9.83985 22.1553 9.49789C25.776 8.70109 29.2942 10.8624 30.3586 14.5785C32.0713 20.5638 26.3282 25.8246 20.902 23.3921C18.9252 22.5061 16.5163 19.4654 14.922 17.8162C13.6575 16.5073 12.2201 14.8228 10.9044 13.6419C8.82838 11.7822 5.51985 12.6211 4.69552 15.4023C3.53665 19.3105 7.876 22.3376 10.9012 19.6575C11.0405 19.5345 11.4214 19.0291 11.5623 19.0679L13.7055 21.3589C12.6635 22.5953 11.1765 23.6095 9.59989 23.8706C2.78756 24.9975 -1.38372 16.5006 3.37499 11.4924V11.4975Z" fill="white"/>
</svg>
