
<svg width="18" height="21" viewBox="0 0 18 21" fill="none" xmlns="http://www.w3.org/2000/svg">
<path d="M9.97092 20.0711H7.91382" stroke="white" stroke-width="1.6" stroke-linecap="round" stroke-linejoin="round"/>
<path d="M11.0857 17.214H6.80005" stroke="white" stroke-width="1.6" stroke-linecap="round" stroke-linejoin="round"/>
<path d="M8.94287 1.5V2.92855" stroke="white" stroke-width="1.6" stroke-linecap="round" stroke-linejoin="round"/>
<path d="M0.799805 10.0713H2.51406" stroke="white" stroke-width="1.6" stroke-linecap="round" stroke-linejoin="round"/>
<path d="M16.7999 10.0713H15.3713" stroke="white" stroke-width="1.6" stroke-linecap="round" stroke-linejoin="round"/>
<path d="M1.80005 3.64282L3.2286 5.07137" stroke="white" stroke-width="1.6" stroke-linecap="round" stroke-linejoin="round"/>
<path d="M16.0855 3.64282L14.657 5.07137" stroke="white" stroke-width="1.6" stroke-linecap="round" stroke-linejoin="round"/>
<path d="M13.2285 9.357C13.1961 8.23061 12.7342 7.15924 11.9374 6.36244C11.1406 5.56563 10.0693 5.10372 8.94287 5.07137C7.81648 5.10372 6.74511 5.56563 5.9483 6.36244C5.15149 7.15924 4.68958 8.23061 4.65723 9.357C4.67302 10.0872 4.87898 10.8007 5.25476 11.427C5.63055 12.0533 6.16317 12.5708 6.80005 12.9284V13.6426C6.80005 13.8321 6.8753 14.0138 7.00925 14.1477C7.1432 14.2817 7.32488 14.3569 7.51432 14.3569H10.3714C10.5608 14.3569 10.7425 14.2817 10.8765 14.1477C11.0104 14.0138 11.0857 13.8321 11.0857 13.6426V12.9284C11.7226 12.5708 12.2552 12.0533 12.631 11.427C13.0068 10.8007 13.2127 10.0872 13.2285 9.357V9.357Z" stroke="white" stroke-width="1.6" stroke-linecap="round" stroke-linejoin="round"/>
</svg>
