<svg width="48" height="48" viewBox="0 0 48 48" fill="none" xmlns="http://www.w3.org/2000/svg">
<path d="M42 19.5H45V22.5H42V19.5ZM35.667 7.1955L37.788 5.0745L39.909 7.1955L37.788 9.3165L35.667 7.1955ZM22.5 0H25.5V3H22.5V0ZM10.212 9.3495L8.0895 7.227L10.212 5.106L12.333 7.227L10.212 9.3495ZM3 19.5H6V22.5H3V19.5ZM19.5 45H28.5V48H19.5V45ZM16.5 39H31.5V42H16.5V39ZM24 6C15.75 6 9 12.75 9 21C9 27.6 12 30.45 14.25 32.4C15.75 33.75 16.5 34.65 16.5 36H19.5C19.5 33.3 17.85 31.65 16.2 30.15C14.1 28.35 12 26.25 12 21C12 14.4 17.4 9 24 9C30.6 9 36 14.4 36 21C36 26.25 33.9 28.35 31.8 30.15C30.15 31.65 28.5 33.15 28.5 36H31.5C31.5 34.65 32.25 33.75 33.75 32.4C36 30.45 39 27.6 39 21C39 12.75 32.25 6 24 6Z" fill="#D2CEFE"/>
</svg>
