<svg width="26" height="26" viewBox="0 0 26 26" fill="none" xmlns="http://www.w3.org/2000/svg">
<path d="M13.0002 14.8462C15.5492 14.8462 17.6155 12.7798 17.6155 10.2308C17.6155 7.68177 15.5492 5.61539 13.0002 5.61539C10.4511 5.61539 8.38477 7.68177 8.38477 10.2308C8.38477 12.7798 10.4511 14.8462 13.0002 14.8462Z" stroke="#D6BBFB" stroke-width="1.71" stroke-linecap="round" stroke-linejoin="round"/>
<path d="M5.11694 22.0462C5.94077 20.6938 7.09862 19.5762 8.47918 18.8008C9.85973 18.0252 11.4166 17.6179 13 17.6179C14.5835 17.6179 16.1403 18.0252 17.5209 18.8008C18.9015 19.5762 20.0592 20.6938 20.8831 22.0462" stroke="#D6BBFB" stroke-width="1.71" stroke-linecap="round" stroke-linejoin="round"/>
<path d="M13 25C19.6275 25 25 19.6275 25 13C25 6.37259 19.6275 1 13 1C6.37259 1 1 6.37259 1 13C1 19.6275 6.37259 25 13 25Z" stroke="#D6BBFB" stroke-width="1.71" stroke-linecap="round" stroke-linejoin="round"/>
</svg>
