
<svg width="36" height="36" viewBox="0 0 36 36" fill="none" xmlns="http://www.w3.org/2000/svg">
<rect x="2" y="2" width="32" height="32" rx="16" fill="#F4EBFF"/>
<rect x="2" y="2" width="32" height="32" rx="16" stroke="#F9F5FF" stroke-width="4"/>
<path d="M18.6667 11.3333H14C13.6464 11.3333 13.3072 11.4738 13.0572 11.7239C12.8071 11.9739 12.6667 12.313 12.6667 12.6667V23.3333C12.6667 23.687 12.8071 24.0261 13.0572 24.2761C13.3072 24.5262 13.6464 24.6667 14 24.6667H22C22.3536 24.6667 22.6928 24.5262 22.9428 24.2761C23.1929 24.0261 23.3333 23.687 23.3333 23.3333V16M18.6667 11.3333L23.3333 16M18.6667 11.3333V16H23.3333" stroke="#7F56D9" stroke-width="1.33333" stroke-linecap="round" stroke-linejoin="round"/>
</svg>
