<svg width="48" height="48" viewBox="0 0 48 48" fill="none" xmlns="http://www.w3.org/2000/svg">
<path d="M40.7053 28.6555C40.7053 12.7099 26.6235 5.33269 19.9909 3.60525C22.4729 9.81213 22.3379 14.4069 19.1339 20.0691C18.6152 20.9857 17.3539 21.0768 16.6573 20.2867L12.5815 15.6641C1.92056 26.9922 8.05826 45.2134 24.9396 44.3663C37.8557 43.5688 40.7053 34.9668 40.7053 28.6555Z" fill="#D7E0FF"/>
<path d="M40.7053 28.6555C40.7053 12.7099 26.6235 5.33269 19.9909 3.60525C22.4729 9.81213 22.3379 14.4069 19.1339 20.0691C18.6152 20.9857 17.3539 21.0768 16.6573 20.2867L12.5815 15.6641C1.92056 26.9922 8.05826 45.2134 24.9396 44.3663C37.8557 43.5688 40.7053 34.9668 40.7053 28.6555Z" stroke="#5816F0" stroke-width="2" stroke-linecap="round" stroke-linejoin="round"/>
<path d="M19.7578 36.4917L30.2105 26.0391" stroke="#5816F0" stroke-width="2" stroke-linecap="round" stroke-linejoin="round"/>
<path d="M21.0239 27.5578C20.5843 27.5578 20.228 27.2015 20.228 26.7619C20.228 26.3224 20.5843 25.966 21.0239 25.966" stroke="#5816F0" stroke-width="2" stroke-linecap="round" stroke-linejoin="round"/>
<path d="M21.0239 27.5578C21.4635 27.5578 21.8198 27.2015 21.8198 26.7619C21.8198 26.3224 21.4635 25.966 21.0239 25.966" stroke="#5816F0" stroke-width="2" stroke-linecap="round" stroke-linejoin="round"/>
<path d="M29.4888 36.5646C29.0492 36.5646 28.6929 36.208 28.6929 35.7687C28.6929 35.3291 29.0492 34.9728 29.4888 34.9728" stroke="#5816F0" stroke-width="2" stroke-linecap="round" stroke-linejoin="round"/>
<path d="M29.4888 36.5646C29.9284 36.5646 30.2847 36.208 30.2847 35.7687C30.2847 35.3291 29.9284 34.9728 29.4888 34.9728" stroke="#5816F0" stroke-width="2" stroke-linecap="round" stroke-linejoin="round"/>
</svg>
