<?xml version="1.0" encoding="iso-8859-1"?>
<!-- Uploaded to: SVG Repo, www.svgrepo.com, Generator: SVG Repo Mixer Tools -->
<svg version="1.1" id="Layer_1" xmlns="http://www.w3.org/2000/svg" xmlns:xlink="http://www.w3.org/1999/xlink" 
	 viewBox="0 0 511.982 511.982" xml:space="preserve">
<path style="fill:#E6E9ED;" d="M393.158,48.295C377.909,19.78,359.629,5.328,338.847,5.328c-23.921,0-48.764,19.546-73.856,58.123
	c-3.203,4.937-6.219,9.874-9,14.64c-2.765-4.766-5.781-9.703-8.984-14.64c-25.093-38.577-49.936-58.123-73.872-58.123
	c-20.78,0-39.045,14.452-54.279,42.967c-11.406,21.343-7.297,36.671-1.844,45.765c9.828,16.39,31.796,27.437,67.154,33.748
	c27.155,4.859,55.889,5.578,70.607,5.578l0,0c0.422,0,0.828,0,1.219,0c0.406,0,0.812,0,1.234,0c14.702,0,43.437-0.719,70.606-5.578
	c35.359-6.312,57.326-17.358,67.154-33.748C400.439,84.966,404.549,69.637,393.158,48.295z"/>
<path style="fill:#967ADC;" d="M479.984,190.087c0-11.796-9.547-21.327-21.328-21.327H53.342c-11.781,0-21.343,9.531-21.343,21.327
	v295.24c0,11.781,9.562,21.327,21.343,21.327h405.314c11.781,0,21.328-9.546,21.328-21.327V190.087z"/>
<path style="fill:#AC92EB;" d="M511.982,208.009c0,11.78-9.547,21.312-21.327,21.312H21.343C9.562,229.321,0,219.79,0,208.009
	v-85.341c0-11.781,9.562-21.344,21.343-21.344h469.312c11.78,0,21.327,9.562,21.327,21.344V208.009z"/>
<rect x="202.661" y="101.321" style="fill:#F5F7FA;" width="106.67" height="128"/>
<g style="opacity:0.1;">
	<polygon points="31.999,250.429 479.984,291.161 479.984,230.008 31.999,230.008 	"/>
</g>
<path style="fill:#F5F7FA;" d="M300.443,267.538c-17.422,0-33.155,7.155-44.452,18.687c-11.296-11.531-27.03-18.687-44.436-18.687
	c-34.358,0-62.216,27.857-62.216,62.216c0,71.107,106.652,133.339,106.652,133.339S362.66,400.862,362.66,329.754
	C362.66,295.395,334.801,267.538,300.443,267.538z"/>
<g style="opacity:0.1;">
	<path d="M300.443,267.538c-3.641,0-7.203,0.312-10.672,0.922c29.28,5.046,51.561,30.576,51.561,61.294
		c0,57.187-68.998,108.622-95.997,126.574c6.578,4.375,10.656,6.765,10.656,6.765S362.66,400.862,362.66,329.754
		C362.66,295.395,334.801,267.538,300.443,267.538z"/>
</g>
</svg>