<svg width="48" height="48" viewBox="0 0 48 48" fill="none" xmlns="http://www.w3.org/2000/svg">
<path d="M10.4427 15.2935L3.45508 11.5329L3.45512 26.7472L20.4814 38.354C22.6823 39.8541 25.5845 39.8264 27.7562 38.2839L44.3867 26.6726V10.0908L35.7703 14.7482L29.2959 14.0555C26.9183 13.8011 24.5398 14.4481 22.6248 15.8547C22.5798 15.8547 22.5364 15.8383 22.5021 15.8091C20.8962 14.4388 18.7625 13.8531 16.68 14.2136L10.4427 15.2935Z" fill="#D7E0FF"/>
<path d="M3.45508 11.5332L10.4427 15.2938L16.68 14.2139C18.7855 13.8493 20.9432 14.452 22.5551 15.8549" stroke="#5816F0" stroke-width="2" stroke-linecap="round" stroke-linejoin="round"/>
<path d="M37.6356 31.2675L27.7561 38.2838C25.5844 39.8263 22.6823 39.854 20.4814 38.3536L3.45508 26.7471" stroke="#5816F0" stroke-width="2" stroke-linecap="round" stroke-linejoin="round"/>
<path d="M44.3864 26.6726L37.396 31.4494L26.5497 22.6916L22.5601 25.5953C20.9379 26.776 18.6716 26.4579 17.4372 24.8762C16.2055 23.2982 16.4431 21.0285 17.9749 19.7397L22.1291 16.2444C24.1201 14.5692 26.7083 13.7786 29.2956 14.0555L35.7701 14.7482L44.3864 10.0908" stroke="#5816F0" stroke-width="2" stroke-linecap="round" stroke-linejoin="round"/>
<path d="M26.5518 22.7152C29.1616 25.0404 32.8629 23.8542 34.239 21.9561" stroke="#5816F0" stroke-width="2" stroke-linecap="round" stroke-linejoin="round"/>
</svg>
