<svg width="20" height="18" viewBox="0 0 20 18" fill="none" xmlns="http://www.w3.org/2000/svg">
<path d="M10.5415 16.1824C10.4715 16.2555 10.3874 16.3136 10.2944 16.3533C10.2013 16.393 10.1012 16.4135 10 16.4135C9.89883 16.4135 9.79869 16.393 9.70564 16.3533C9.61258 16.3136 9.52852 16.2555 9.45852 16.1824L2.32926 8.74566C1.6558 8.07196 1.2113 7.2035 1.05867 6.26322C0.906035 5.32294 1.05301 4.35847 1.47879 3.50634C1.80078 2.86341 2.27092 2.30618 2.85047 1.88056C3.43003 1.45493 4.10241 1.1731 4.81223 1.05826C5.52206 0.943421 6.24901 0.998872 6.9332 1.22004C7.61739 1.44121 8.23925 1.82177 8.74754 2.33038L10 3.58283L11.2525 2.33038C11.761 1.82188 12.383 1.44149 13.0673 1.22054C13.7517 0.999597 14.4787 0.944418 15.1886 1.05955C15.8984 1.17469 16.5707 1.45684 17.1502 1.88276C17.7296 2.30868 18.1995 2.86619 18.5212 3.50934C18.947 4.36147 19.094 5.32594 18.9413 6.26622C18.7887 7.2065 18.3442 8.07495 17.6707 8.74866L10.5415 16.1824Z" stroke="black" stroke-width="1.6" stroke-linecap="round" stroke-linejoin="round"/>
</svg> 