<svg width="45" height="22" viewBox="0 0 45 22" fill="none" xmlns="http://www.w3.org/2000/svg">
<path d="M3.15562 3.13946C7.15326 -0.843835 13.65 -1.04422 17.8856 2.67759C22.2217 6.48738 26.1408 11.2649 30.4745 15.1382C33.859 17.9265 39.1491 16.0693 39.9584 11.7781C40.9566 6.48738 35.0239 2.74846 30.6756 5.98642C30.2464 6.30655 29.7436 6.9517 29.3708 7.2034C29.2972 7.25227 29.2433 7.30604 29.1452 7.26938L25.8612 3.9459C27.4652 2.17663 29.5523 0.734821 31.9313 0.238742C37.4789 -0.917147 42.8696 2.21817 44.5005 7.60906C47.1248 16.2917 38.325 23.9235 30.0109 20.3947C26.982 19.1093 23.291 14.6983 20.8482 12.3059C18.9107 10.4071 16.7084 7.9634 14.6924 6.25034C11.5114 3.55245 6.44202 4.76944 5.17897 8.80405C3.40333 14.4735 10.0522 18.8649 14.6875 14.9769C14.9008 14.7985 15.4845 14.0654 15.7004 14.1216L18.9843 17.4451C17.3877 19.2388 15.1093 20.7099 12.6936 21.0887C2.25554 22.7236 -4.13578 10.3974 3.15562 3.13213V3.13946Z" fill="url(#paint0_linear_329_3115)"/>
<defs>
<linearGradient id="paint0_linear_329_3115" x1="40.6704" y1="5.10712" x2="5.67041" y2="14.6071" gradientUnits="userSpaceOnUse">
<stop stop-color="#D4C3FF"/>
<stop offset="0.48" stop-color="white"/>
<stop offset="1" stop-color="#D4C3FF"/>
</linearGradient>
</defs>
</svg>
