
<svg width="24" height="24" viewBox="0 0 24 24" fill="none" xmlns="http://www.w3.org/2000/svg">
<path d="M2.53125 8.62311C4.48803 6.56374 7.66811 6.46013 9.74134 8.38432C11.8638 10.354 13.7822 12.824 15.9034 14.8265C17.5601 16.2681 20.1495 15.3079 20.5457 13.0893C21.0343 10.354 18.1303 8.42096 16.0018 10.095C15.7918 10.2605 15.5457 10.594 15.3632 10.7242C15.3272 10.7494 15.3008 10.7772 15.2528 10.7583L13.6453 9.04004C14.4304 8.12532 15.452 7.3799 16.6165 7.12343C19.332 6.52583 21.9706 8.1468 22.769 10.9339C24.0535 15.4228 19.7461 19.3685 15.6765 17.5441C14.1939 16.8796 12.3872 14.5991 11.1915 13.3622C10.2431 12.3805 9.16511 11.1171 8.17831 10.2314C6.62129 8.83663 4.13989 9.46581 3.52164 11.5517C2.65249 14.4829 5.907 16.7532 8.17591 14.7431C8.28035 14.6509 8.56607 14.2719 8.67171 14.3009L10.2792 16.0192C9.49764 16.9465 8.38239 17.7071 7.19992 17.9029C2.09067 18.7482 -1.03779 12.3755 2.53125 8.61932V8.62311Z" fill="url(#paint0_linear_333_4799)"/>
<defs>
<linearGradient id="paint0_linear_333_4799" x1="21.5059" y1="16.4168" x2="2.98439" y2="9.7162" gradientUnits="userSpaceOnUse">
<stop stop-color="#6941C6"/>
<stop offset="0.48" stop-color="#D2CEFE"/>
<stop offset="1" stop-color="#6941C6"/>
</linearGradient>
</defs>
</svg>
