<svg width="48" height="48" viewBox="0 0 48 48" fill="none" xmlns="http://www.w3.org/2000/svg">
<path d="M11.0873 43.216L3.30664 36.7343V25.5918H11.8131C13.5017 25.5921 15.1209 26.2632 16.3147 27.4574L20.0204 31.163C20.4243 31.566 20.7194 32.0648 20.8782 32.6129C21.037 33.1609 21.0542 33.7402 20.9283 34.2967C20.8024 34.8532 20.5374 35.3687 20.1581 35.795C19.7789 36.2213 19.2978 36.5445 18.7597 36.7343H33.0221C35.951 36.7343 38.3259 39.1092 38.3259 42.0413C38.3259 43.5057 37.1385 44.6932 35.674 44.6932H15.1623C13.673 44.6925 12.2311 44.1698 11.0873 43.216Z" fill="#D7E0FF"/>
<path d="M44.6932 9.67393H22.4082V25.5918H44.6932V9.67393Z" fill="white"/>
<path d="M44.6932 9.67393H22.4082V25.5918H44.6932V9.67393Z" stroke="#4147D5" stroke-width="2" stroke-linecap="round" stroke-linejoin="round"/>
<path d="M33.5508 9.67393V25.5918" stroke="#4147D5" stroke-width="2" stroke-linecap="round" stroke-linejoin="round"/>
<path d="M28.7754 3.30679L33.5507 9.67393L38.3261 3.30679" stroke="#4147D5" stroke-width="2" stroke-linecap="round" stroke-linejoin="round"/>
<path d="M3.30664 36.7343L11.0873 43.216C12.2315 44.1687 13.6734 44.6903 15.1623 44.69H35.6708C37.1353 44.69 38.3259 43.5026 38.3259 42.0381C38.3259 39.1092 35.951 36.7311 33.0189 36.7311H18.7597" stroke="#4147D5" stroke-width="2" stroke-linecap="round" stroke-linejoin="round"/>
<path d="M12.8574 33.5507L15.245 35.9384C15.8783 36.5716 16.7372 36.9274 17.6327 36.9274C18.5283 36.9274 19.3871 36.5716 20.0204 35.9384C20.6536 35.3051 21.0094 34.4463 21.0094 33.5507C21.0094 32.6552 20.6536 31.7963 20.0204 31.163L16.3147 27.4542C15.7226 26.8627 15.0197 26.3938 14.2461 26.0742C13.4726 25.7546 12.6437 25.5907 11.8068 25.5918H3.30664" stroke="#4147D5" stroke-width="2" stroke-linecap="round" stroke-linejoin="round"/>
</svg>
