<svg width="48" height="48" viewBox="0 0 48 48" fill="none" xmlns="http://www.w3.org/2000/svg">
<path d="M43.5405 16.9707V18.8808C43.5405 19.7252 43.2051 20.5349 42.6081 21.1319C42.011 21.729 41.2013 22.0644 40.3569 22.0644H7.64256C6.79822 22.0644 5.98847 21.729 5.39143 21.1319C4.7944 20.5349 4.45898 19.7252 4.45898 18.8808V16.9707C4.45898 16.1263 4.7944 15.3166 5.39143 14.7196C5.98847 14.1225 6.79822 13.7871 7.64256 13.7871H40.3569C41.2013 13.7871 42.011 14.1225 42.6081 14.7196C43.2051 15.3166 43.5405 16.1263 43.5405 16.9707Z" fill="white"/>
<path d="M40.7962 40.6628V22.0644H7.20312V40.6628C7.20313 41.5072 7.53854 42.3169 8.13557 42.9139C8.73261 43.511 9.54236 43.8464 10.3867 43.8464H37.6126C38.4569 43.8464 39.2667 43.511 39.8637 42.9139C40.4608 42.3169 40.7962 41.5072 40.7962 40.6628Z" fill="#D7E0FF"/>
<path d="M40.7962 40.6628V22.0644H7.20312V40.6628C7.20313 41.5072 7.53854 42.3169 8.13557 42.9139C8.73261 43.511 9.54236 43.8464 10.3867 43.8464H37.6126C38.4569 43.8464 39.2667 43.511 39.8637 42.9139C40.4608 42.3169 40.7962 41.5072 40.7962 40.6628Z" stroke="#4147D5" stroke-width="3.43" stroke-linecap="round" stroke-linejoin="round"/>
<path d="M24 43.8464V22.0612" stroke="#4147D5" stroke-width="3.43" stroke-linecap="round" stroke-linejoin="round"/>
<path d="M43.5405 16.9707V18.8808C43.5405 19.7252 43.2051 20.5349 42.6081 21.1319C42.011 21.729 41.2013 22.0644 40.3569 22.0644H7.64256C6.79822 22.0644 5.98847 21.729 5.39143 21.1319C4.7944 20.5349 4.45898 19.7252 4.45898 18.8808V16.9707C4.45898 16.1263 4.7944 15.3166 5.39143 14.7196C5.98847 14.1225 6.79822 13.7871 7.64256 13.7871H40.3569C41.2013 13.7871 42.011 14.1225 42.6081 14.7196C43.2051 15.3166 43.5405 16.1263 43.5405 16.9707Z" stroke="#4147D5" stroke-width="3.43" stroke-linecap="round" stroke-linejoin="round"/>
<path d="M24.0001 13.7871C24.0001 11.0015 20.7529 4.50063 15.8756 4.50063C7.94536 4.50063 10.8329 13.7871 14.6309 13.7871" stroke="#4147D5" stroke-width="3.43" stroke-linecap="round" stroke-linejoin="round"/>
<path d="M24 13.7871C24 11.0015 27.2472 4.50063 32.1245 4.50063C40.0547 4.50063 37.1673 13.7871 33.3693 13.7871" stroke="#4147D5" stroke-width="3.43" stroke-linecap="round" stroke-linejoin="round"/>
</svg>
