<svg width="23" height="22" viewBox="0 0 23 22" fill="none" xmlns="http://www.w3.org/2000/svg">
<path d="M11.5054 21.8757C10.5117 21.8757 9.55013 21.7434 8.62077 21.4789C7.69856 21.2216 6.82997 20.8498 6.01499 20.3637C5.20001 19.8847 4.4601 19.3128 3.79525 18.648C3.1304 17.9831 2.55491 17.2432 2.06879 16.4282C1.58981 15.6132 1.21807 14.7446 0.953556 13.8224C0.696195 12.8931 0.567514 11.9315 0.567514 10.9378C0.567514 10.2158 0.642578 9.49376 0.792705 8.77172C0.949981 8.04253 1.20377 7.26688 1.55407 6.44475L0.256536 5.79062C0.135005 5.72628 0.0563665 5.63335 0.0206219 5.51182C-0.0151227 5.39029 -0.00439934 5.27233 0.052792 5.15795C0.109983 5.04356 0.210068 4.9685 0.353047 4.93275L2.68002 4.38586C3.05176 3.89259 3.45568 3.43863 3.89176 3.02399L4.25636 0.707743C4.28495 0.579062 4.34572 0.482552 4.43865 0.418212C4.53874 0.353872 4.64597 0.32885 4.76036 0.343148C4.88189 0.357446 4.98197 0.421786 5.06061 0.536169L5.80052 1.69429C6.65125 1.14383 7.55558 0.725615 8.51354 0.439659C9.47149 0.146553 10.4688 0 11.5054 0C12.542 0 13.5392 0.146553 14.4972 0.439659C15.4551 0.725615 16.3559 1.14383 17.1995 1.69429L17.9501 0.536169C18.0287 0.421786 18.1253 0.357446 18.2396 0.343148C18.354 0.32885 18.4613 0.353872 18.5613 0.418212C18.6614 0.482552 18.7222 0.579062 18.7436 0.707743L19.1082 3.02399C19.337 3.23131 19.5515 3.44935 19.7516 3.67812C19.959 3.90688 20.152 4.1428 20.3307 4.38586L22.6577 4.93275C22.8007 4.9685 22.8972 5.04356 22.9472 5.15795C23.0044 5.27233 23.0151 5.39029 22.9794 5.51182C22.9508 5.63335 22.8757 5.72628 22.7542 5.79062L21.4567 6.44475C21.8141 7.26688 22.0679 8.04253 22.218 8.77172C22.3681 9.49376 22.4432 10.2158 22.4432 10.9378C22.4432 11.9315 22.311 12.8931 22.0464 13.8224C21.7891 14.7446 21.4173 15.6132 20.9312 16.4282C20.4522 17.2432 19.8803 17.9831 19.2155 18.648C18.5506 19.3128 17.8107 19.8847 16.9957 20.3637C16.1808 20.8498 15.3086 21.2216 14.3792 21.4789C13.457 21.7434 12.4991 21.8757 11.5054 21.8757ZM18.9259 9.86551C18.9617 9.9084 18.9974 9.9227 19.0332 9.9084C19.0761 9.88696 19.0939 9.84764 19.0868 9.79045L18.9796 7.64577C18.9653 7.39556 19.0189 7.16679 19.1404 6.95947C19.2619 6.75215 19.4371 6.5913 19.6659 6.47692L21.4245 5.57616C21.4674 5.55471 21.4853 5.52611 21.4781 5.49037C21.4781 5.45463 21.4567 5.43318 21.4138 5.42603L19.387 4.96492C18.8723 4.84339 18.5756 4.51812 18.497 3.9891L18.1431 1.90876C18.136 1.85872 18.111 1.82655 18.0681 1.81225C18.0323 1.79795 18.0002 1.81583 17.9716 1.86587L16.8456 3.63523C16.7169 3.84969 16.5418 4.0034 16.3202 4.09633C16.0985 4.18927 15.8626 4.21429 15.6124 4.17139L13.5964 3.78535C13.5464 3.7782 13.5106 3.78893 13.4892 3.81752C13.4677 3.83897 13.4749 3.87471 13.5106 3.92476L14.7653 5.44748C14.9225 5.6262 15.0155 5.83352 15.0441 6.06943C15.0727 6.2982 15.0369 6.52339 14.9368 6.74501L13.9932 8.69666C13.9646 8.73955 13.961 8.7753 13.9825 8.80389C14.0111 8.83249 14.0504 8.83606 14.1004 8.81462L16.0521 7.99964C16.3237 7.88526 16.5704 7.85309 16.792 7.90313C17.0136 7.94602 17.2245 8.0747 17.4247 8.28917L18.9259 9.86551ZM4.08478 9.86551L5.57533 8.28917C5.7755 8.08185 5.98282 7.95317 6.19729 7.90313C6.41891 7.84594 6.67269 7.87811 6.95865 7.99964L8.89958 8.81462C8.95677 8.83606 8.99609 8.83249 9.01754 8.80389C9.04613 8.7753 9.04613 8.73955 9.01754 8.69666L8.07388 6.74501C7.96665 6.52339 7.92733 6.2982 7.95592 6.06943C7.99167 5.83352 8.0846 5.6262 8.23473 5.44748L9.48937 3.92476C9.53226 3.87471 9.54298 3.83897 9.52154 3.81752C9.50009 3.78893 9.46434 3.7782 9.4143 3.78535L7.38758 4.17139C7.14452 4.21429 6.91218 4.18927 6.69056 4.09633C6.46895 4.0034 6.29022 3.84969 6.1544 3.63523L5.03916 1.86587C5.01057 1.81583 4.97482 1.79795 4.93193 1.81225C4.89619 1.82655 4.87474 1.85872 4.86759 1.90876L4.51372 3.9891C4.47797 4.23931 4.38146 4.4502 4.22419 4.62178C4.07406 4.79335 3.87031 4.90773 3.61295 4.96492L1.59696 5.42603C1.55407 5.43318 1.52904 5.45463 1.5219 5.49037C1.5219 5.52611 1.53977 5.55471 1.57551 5.57616L3.34487 6.47692C3.57363 6.5913 3.74878 6.75215 3.87031 6.95947C3.99185 7.16679 4.04546 7.39556 4.03117 7.64577L3.91321 9.79045C3.90606 9.84764 3.92036 9.88696 3.9561 9.9084C3.999 9.9227 4.04189 9.9084 4.08478 9.86551ZM4.50299 11.3346C4.39576 11.3346 4.29925 11.3346 4.21346 11.3346C4.13482 11.3346 4.04546 11.331 3.94538 11.3239C3.85244 11.3096 3.72019 11.2953 3.54861 11.281C3.37704 11.2667 3.25551 11.2131 3.18402 11.1201C3.11253 11.0272 3.08036 10.8807 3.08751 10.6805L3.23764 7.60288C3.24478 7.53854 3.23764 7.48134 3.21619 7.4313C3.20189 7.38126 3.17687 7.33479 3.14113 7.2919C2.86947 8.00679 2.67645 8.65019 2.56206 9.22211C2.45483 9.79402 2.40121 10.3659 2.40121 10.9378C2.40121 11.953 2.55134 12.9181 2.85159 13.8332C3.159 14.7411 3.58793 15.5739 4.1384 16.3317C4.69602 17.0895 5.35372 17.7472 6.1115 18.3048C6.86929 18.8624 7.70214 19.2914 8.61005 19.5916C9.52511 19.899 10.4902 20.0527 11.5054 20.0527C12.5205 20.0527 13.482 19.899 14.39 19.5916C15.305 19.2914 16.1414 18.8624 16.8992 18.3048C17.657 17.7472 18.3111 17.0895 18.8616 16.3317C19.4192 15.5739 19.8482 14.7411 20.1484 13.8332C20.4558 12.9181 20.6095 11.953 20.6095 10.9378C20.6095 10.3659 20.5523 9.79402 20.4379 9.22211C20.3307 8.65019 20.1413 8.00679 19.8696 7.2919C19.7981 7.39198 19.7659 7.49564 19.7731 7.60288L19.9232 10.6805C19.9304 10.8807 19.8946 11.0272 19.816 11.1201C19.7373 11.2131 19.6194 11.2667 19.4621 11.281C19.2977 11.2953 19.1654 11.3096 19.0653 11.3239C18.9653 11.331 18.8759 11.3346 18.7973 11.3346C18.7186 11.3346 18.6221 11.3346 18.5077 11.3346C18.4148 11.3346 18.3326 11.3203 18.2611 11.2917C18.1968 11.2631 18.1288 11.2131 18.0573 11.1416L16.6097 9.55453C16.5668 9.50449 16.5239 9.46874 16.481 9.4473C16.4381 9.42585 16.3702 9.433 16.2773 9.46874L14.3792 10.273C14.2077 10.3445 14.054 10.3767 13.9181 10.3695C13.7894 10.3624 13.6751 10.3338 13.575 10.2837C13.4534 10.2265 13.3426 10.1622 13.2425 10.0907C13.1425 10.0192 13.0638 9.95844 13.0066 9.9084C12.7636 9.72253 12.7207 9.47947 12.878 9.17921L14.2184 6.41258C14.2613 6.32679 14.2756 6.24458 14.2613 6.16594C14.2541 6.08016 14.2255 6.00152 14.1755 5.93003L12.256 3.57089C12.206 3.52084 12.1738 3.46723 12.1595 3.41003C12.1523 3.34569 12.1488 3.29923 12.1488 3.27063C12.1488 3.14195 12.1952 3.02757 12.2882 2.92748C12.3811 2.82025 12.5062 2.78093 12.6635 2.80953L15.7411 3.39931C15.8269 3.40646 15.9127 3.39574 15.9985 3.36714C16.0914 3.33855 16.1629 3.2885 16.2129 3.21701L16.2236 3.20629C14.8153 2.28408 13.2425 1.82297 11.5054 1.82297C9.76817 1.82297 8.19541 2.28408 6.78707 3.20629V3.21701C6.84427 3.2885 6.91575 3.33855 7.00154 3.36714C7.09448 3.39574 7.18026 3.40646 7.2589 3.39931L10.3365 2.80953C10.5009 2.78093 10.6296 2.82025 10.7226 2.92748C10.8155 3.02757 10.862 3.14195 10.862 3.27063C10.862 3.29923 10.8548 3.34569 10.8405 3.41003C10.8262 3.46723 10.7976 3.52084 10.7547 3.57089L8.83524 5.93003C8.72801 6.09445 8.71371 6.2553 8.79235 6.41258L10.1328 9.17921C10.2757 9.47232 10.2329 9.71538 10.0041 9.9084C9.9469 9.95844 9.86826 10.0192 9.76817 10.0907C9.66809 10.1622 9.55371 10.2265 9.42503 10.2837C9.33924 10.3338 9.22843 10.3624 9.0926 10.3695C8.95677 10.3767 8.7995 10.3445 8.62077 10.273L6.73346 9.46874C6.67627 9.4473 6.62265 9.43657 6.57261 9.43657C6.52971 9.43657 6.46895 9.47589 6.39031 9.55453L4.95338 11.1416C4.88189 11.2131 4.8104 11.2631 4.73891 11.2917C4.66742 11.3203 4.58878 11.3346 4.50299 11.3346ZM11.5054 18.2834C10.5832 18.2834 9.71813 18.1297 8.9103 17.8223C8.10248 17.5077 7.38043 17.0788 6.74418 16.5354C6.11508 15.985 5.60035 15.3523 5.20001 14.6374C4.79967 13.9225 4.54946 13.1647 4.44938 12.3641C4.41363 12.0424 4.48512 11.8136 4.66385 11.6778C4.84257 11.5348 5.07491 11.5062 5.36087 11.592C6.40461 11.8994 7.42333 12.1353 8.41703 12.2997C9.41788 12.4641 10.4473 12.5464 11.5054 12.5464C12.5705 12.5464 13.6 12.4641 14.5937 12.2997C15.5874 12.1353 16.6061 11.8994 17.6499 11.592C17.943 11.5062 18.1753 11.5348 18.3469 11.6778C18.5256 11.8136 18.5935 12.0424 18.5506 12.3641C18.4505 13.1647 18.2003 13.9225 17.8 14.6374C17.4068 15.3523 16.8921 15.985 16.2558 16.5354C15.6267 17.0788 14.9082 17.5077 14.1004 17.8223C13.2926 18.1297 12.4276 18.2834 11.5054 18.2834ZM11.5054 14.9591C12.3632 14.9591 13.2247 14.9055 14.0897 14.7983C14.9619 14.6839 15.759 14.5373 16.481 14.3586C16.5811 14.33 16.6597 14.2907 16.7169 14.2406C16.7813 14.1906 16.8385 14.1298 16.8885 14.0584C16.96 13.9154 17.0386 13.7474 17.1244 13.5544C17.2173 13.3613 17.2924 13.154 17.3496 12.9324C17.3639 12.8538 17.3317 12.8216 17.2531 12.8359C16.3881 13.0718 15.4659 13.2648 14.4865 13.4149C13.5142 13.5579 12.5205 13.6294 11.5054 13.6294C10.4902 13.6294 9.49652 13.5579 8.52426 13.4149C7.55201 13.2648 6.6298 13.0718 5.75763 12.8359C5.67899 12.8216 5.64682 12.8538 5.66112 12.9324C5.72546 13.1612 5.79695 13.3685 5.87559 13.5544C5.95423 13.7402 6.03644 13.9082 6.12222 14.0584C6.20801 14.2085 6.34027 14.3086 6.51899 14.3586C7.24103 14.5373 8.03814 14.6839 8.9103 14.7983C9.78247 14.9055 10.6475 14.9591 11.5054 14.9591Z" fill="#5816F0"/>
</svg>
