
<svg width="24" height="24" viewBox="0 0 24 24" fill="none" xmlns="http://www.w3.org/2000/svg">
<path d="M12 0C9.62663 0 7.30655 0.703788 5.33316 2.02236C3.35977 3.34094 1.8217 5.21509 0.913451 7.4078C0.00519943 9.60051 -0.232441 12.0133 0.230582 14.3411C0.693605 16.6689 1.83649 18.8071 3.51472 20.4853C5.19295 22.1635 7.33115 23.3064 9.65892 23.7694C11.9867 24.2324 14.3995 23.9948 16.5922 23.0866C18.7849 22.1783 20.6591 20.6402 21.9776 18.6668C23.2962 16.6935 24 14.3734 24 12C24 8.8174 22.7357 5.76515 20.4853 3.51472C18.2348 1.26428 15.1826 0 12 0ZM19.5 18C19.5 18.1326 19.4473 18.2598 19.3536 18.3536C19.2598 18.4473 19.1326 18.5 19 18.5H17.5C17.3674 18.5 17.2402 18.4473 17.1465 18.3536C17.0527 18.2598 17 18.1326 17 18V12.5C16.9486 12.1336 16.8026 11.7869 16.5763 11.494C16.3501 11.2012 16.0516 10.9723 15.71 10.83C15.425 10.6867 15.108 10.6187 14.7892 10.6325C14.4705 10.6462 14.1606 10.7413 13.889 10.9087C13.6173 11.0761 13.3931 11.3102 13.2375 11.5887C13.0819 11.8672 13.0001 12.181 13 12.5V18C13 18.1326 12.9473 18.2598 12.8536 18.3536C12.7598 18.4473 12.6326 18.5 12.5 18.5H11C10.8674 18.5 10.7402 18.4473 10.6465 18.3536C10.5527 18.2598 10.5 18.1326 10.5 18V9C10.5 8.86739 10.5527 8.74021 10.6465 8.64645C10.7402 8.55268 10.8674 8.5 11 8.5H12.5C12.6326 8.5 12.7598 8.55268 12.8536 8.64645C12.9473 8.74021 13 8.86739 13 9C12.9999 9.04497 13.0119 9.08915 13.0348 9.12786C13.0577 9.16658 13.0906 9.19841 13.13 9.22C13.1698 9.24188 13.2146 9.25336 13.26 9.25336C13.3055 9.25336 13.3502 9.24188 13.39 9.22C16.29 7.15 19.5 8.67 19.5 12.02V18ZM8.00001 6V18C8.00001 18.1326 7.94733 18.2598 7.85356 18.3536C7.75979 18.4473 7.63261 18.5 7.50001 18.5H5.50001C5.3674 18.5 5.24022 18.4473 5.14645 18.3536C5.05268 18.2598 5.00001 18.1326 5.00001 18V6C5.00001 5.86739 5.05268 5.74021 5.14645 5.64645C5.24022 5.55268 5.3674 5.5 5.50001 5.5H7.50001C7.63261 5.5 7.75979 5.55268 7.85356 5.64645C7.94733 5.74021 8.00001 5.86739 8.00001 6Z" fill="#5381FF"/>
</svg>
