<svg width="155" height="40" viewBox="0 0 155 40" fill="none" xmlns="http://www.w3.org/2000/svg">
<path d="M102.368 15.5856C105.267 12.6979 109.976 12.5526 113.047 15.2508C116.191 18.0127 119.032 21.4762 122.173 24.2842C124.627 26.3056 128.462 24.9592 129.049 21.8482C129.773 18.0127 125.472 15.3022 122.319 17.6495C122.008 17.8816 121.644 18.3493 121.373 18.5318C121.32 18.5672 121.281 18.6062 121.21 18.5796L118.829 16.1702C119.992 14.8876 121.505 13.8423 123.23 13.4827C127.251 12.6447 131.159 14.9177 132.342 18.8259C134.244 25.1204 127.865 30.6531 121.837 28.0949C119.642 27.1631 116.966 23.9653 115.195 22.2309C113.79 20.8544 112.194 19.0828 110.732 17.8409C108.426 15.885 104.751 16.7673 103.835 19.6922C102.548 23.8023 107.368 26.9859 110.729 24.1673C110.883 24.038 111.306 23.5065 111.463 23.5472L113.844 25.9566C112.686 27.257 111.034 28.3235 109.283 28.5981C101.716 29.7833 97.0825 20.8473 102.368 15.5803V15.5856Z" fill="url(#paint0_linear_190_5952)"/>
<path d="M86.0033 17.0562V25.0177C86.0033 25.675 86.143 26.1433 86.4223 26.4226C86.7017 26.6856 87.1865 26.817 87.8766 26.817H89.5281V28.715H87.5069C86.258 28.715 85.3214 28.4274 84.6969 27.8523C84.0725 27.2771 83.7603 26.3323 83.7603 25.0177V17.0562H82.0103V15.2075H83.7603V11.806H86.0033V15.2075H89.5281V17.0562H86.0033Z" fill="#101828"/>
<path d="M74.2054 14.961C75.2242 14.961 76.1444 15.1829 76.966 15.6265C77.7876 16.0538 78.4285 16.7028 78.8886 17.5738C79.3652 18.4447 79.6034 19.5046 79.6034 20.7534V28.7149H77.3851V21.0739C77.3851 19.7264 77.0482 18.6994 76.3745 17.9928C75.7007 17.2698 74.7805 16.9083 73.6138 16.9083C72.4307 16.9083 71.4858 17.278 70.7792 18.0174C70.0891 18.7569 69.744 19.8332 69.744 21.2464V28.7149H67.501V10.475H69.744V17.1301C70.1877 16.4399 70.7957 15.9059 71.568 15.5279C72.3567 15.15 73.2359 14.961 74.2054 14.961Z" fill="#101828"/>
<path d="M56.415 14.9858C57.5817 14.9858 58.6005 15.2405 59.4714 15.7499C60.3588 16.2593 61.016 16.9002 61.4433 17.6725V15.2076H63.711V29.0108C63.711 30.2432 63.448 31.336 62.9222 32.2891C62.3964 33.2586 61.6405 34.0145 60.6545 34.5567C59.685 35.099 58.5512 35.3701 57.253 35.3701C55.4783 35.3701 53.9994 34.9511 52.8163 34.1131C51.6332 33.275 50.9348 32.133 50.7212 30.6869H52.9395C53.186 31.5085 53.6954 32.1658 54.4677 32.6588C55.2401 33.1682 56.1685 33.4229 57.253 33.4229C58.4855 33.4229 59.4878 33.0368 60.2602 32.2644C61.0489 31.4921 61.4433 30.4076 61.4433 29.0108V26.1762C60.9996 26.965 60.3423 27.6223 59.4714 28.1481C58.6005 28.674 57.5817 28.9369 56.415 28.9369C55.2154 28.9369 54.1227 28.6411 53.1367 28.0495C52.1672 27.458 51.4031 26.6281 50.8444 25.56C50.2857 24.4919 50.0063 23.2759 50.0063 21.912C50.0063 20.5317 50.2857 19.3239 50.8444 18.2887C51.4031 17.237 52.1672 16.4236 53.1367 15.8485C54.1227 15.2733 55.2154 14.9858 56.415 14.9858ZM61.4433 21.9367C61.4433 20.9179 61.2379 20.0305 60.8271 19.2746C60.4163 18.5187 59.8576 17.9436 59.151 17.5492C58.4608 17.1384 57.6967 16.933 56.8587 16.933C56.0206 16.933 55.2565 17.1302 54.5663 17.5246C53.8762 17.919 53.3257 18.4941 52.9149 19.25C52.5041 20.0059 52.2987 20.8932 52.2987 21.912C52.2987 22.9473 52.5041 23.851 52.9149 24.6234C53.3257 25.3793 53.8762 25.9626 54.5663 26.3734C55.2565 26.7678 56.0206 26.965 56.8587 26.965C57.6967 26.965 58.4608 26.7678 59.151 26.3734C59.8576 25.9626 60.4163 25.3793 60.8271 24.6234C61.2379 23.851 61.4433 22.9555 61.4433 21.9367Z" fill="#101828"/>
<path d="M45.9364 13.0139C45.5092 13.0139 45.1477 12.866 44.8519 12.5702C44.5561 12.2744 44.4082 11.9129 44.4082 11.4857C44.4082 11.0584 44.5561 10.6969 44.8519 10.4011C45.1477 10.1053 45.5092 9.95746 45.9364 9.95746C46.3472 9.95746 46.6923 10.1053 46.9717 10.4011C47.2674 10.6969 47.4153 11.0584 47.4153 11.4857C47.4153 11.9129 47.2674 12.2744 46.9717 12.5702C46.6923 12.866 46.3472 13.0139 45.9364 13.0139ZM47.021 15.2076V28.715H44.7779V15.2076H47.021Z" fill="#101828"/>
<path d="M40.9554 10.475V28.7149H38.7124V10.475H40.9554Z" fill="#101828"/>
<path d="M35.7517 21.4437C35.7517 21.8709 35.727 22.3228 35.6777 22.7994H24.8817C24.9638 24.1304 25.4157 25.1739 26.2373 25.9297C27.0754 26.6692 28.086 27.0389 29.2691 27.0389C30.2386 27.0389 31.0438 26.8171 31.6847 26.3734C32.342 25.9133 32.8021 25.3053 33.065 24.5494H35.4806C35.119 25.8476 34.396 26.9075 33.3115 27.7291C32.2269 28.5343 30.8795 28.9369 29.2691 28.9369C27.9874 28.9369 26.8371 28.6493 25.8183 28.0742C24.8159 27.499 24.0272 26.6856 23.4521 25.634C22.8769 24.5659 22.5894 23.3334 22.5894 21.9367C22.5894 20.5399 22.8687 19.3157 23.4274 18.264C23.9861 17.2124 24.7666 16.4072 25.769 15.8485C26.7878 15.2733 27.9545 14.9858 29.2691 14.9858C30.5508 14.9858 31.6847 15.2651 32.6706 15.8238C33.6566 16.3825 34.4125 17.1549 34.9383 18.1408C35.4806 19.1103 35.7517 20.2113 35.7517 21.4437ZM33.4347 20.9754C33.4347 20.1209 33.2458 19.3897 32.8678 18.7817C32.4899 18.1572 31.9722 17.6889 31.3149 17.3767C30.6741 17.048 29.9593 16.8837 29.1705 16.8837C28.0367 16.8837 27.0672 17.2452 26.262 17.9683C25.4732 18.6913 25.0213 19.6937 24.9063 20.9754H33.4347Z" fill="#101828"/>
<path d="M5.93213 21.9121C5.93213 20.5318 6.21148 19.324 6.77018 18.2888C7.32888 17.2371 8.09299 16.4237 9.0625 15.8486C10.0484 15.2734 11.1494 14.9859 12.3654 14.9859C13.4171 14.9859 14.3948 15.2324 15.2986 15.7253C16.2024 16.2019 16.8925 16.8345 17.3691 17.6233V10.4752H19.6367V28.7151H17.3691V26.1763C16.9254 26.9815 16.2681 27.647 15.3972 28.1729C14.5263 28.6823 13.5075 28.937 12.3408 28.937C11.1412 28.937 10.0484 28.6412 9.0625 28.0496C8.09299 27.4581 7.32888 26.6282 6.77018 25.5601C6.21148 24.492 5.93213 23.276 5.93213 21.9121ZM17.3691 21.9368C17.3691 20.918 17.1637 20.0306 16.7529 19.2747C16.342 18.5188 15.7833 17.9437 15.0767 17.5493C14.3866 17.1385 13.6225 16.9331 12.7844 16.9331C11.9464 16.9331 11.1823 17.1303 10.4921 17.5247C9.80195 17.9191 9.25147 18.4942 8.84066 19.2501C8.42985 20.006 8.22445 20.8933 8.22445 21.9121C8.22445 22.9474 8.42985 23.8511 8.84066 24.6235C9.25147 25.3794 9.80195 25.9627 10.4921 26.3735C11.1823 26.7679 11.9464 26.9651 12.7844 26.9651C13.6225 26.9651 14.3866 26.7679 15.0767 26.3735C15.7833 25.9627 16.342 25.3794 16.7529 24.6235C17.1637 23.8511 17.3691 22.9556 17.3691 21.9368Z" fill="#101828"/>
<path d="M97.0438 10.4751V28.7151H94.8008V10.4751H97.0438Z" fill="#101828"/>
<path d="M137.538 17.6972C137.982 16.9248 138.639 16.284 139.51 15.7746C140.398 15.2487 141.425 14.9858 142.591 14.9858C143.791 14.9858 144.875 15.2734 145.845 15.8485C146.831 16.4236 147.603 17.237 148.162 18.2887C148.721 19.324 149 20.5317 149 21.9121C149 23.2759 148.721 24.4919 148.162 25.56C147.603 26.6282 146.831 27.458 145.845 28.0496C144.875 28.6411 143.791 28.9369 142.591 28.9369C141.441 28.9369 140.422 28.6822 139.535 28.1728C138.664 27.647 137.999 26.9979 137.538 26.2256V35.1237H135.295V15.2076H137.538V17.6972ZM146.708 21.9121C146.708 20.8933 146.502 20.0059 146.091 19.25C145.681 18.4941 145.122 17.919 144.415 17.5246C143.725 17.1302 142.961 16.933 142.123 16.933C141.301 16.933 140.537 17.1385 139.831 17.5493C139.141 17.9436 138.582 18.527 138.155 19.2993C137.744 20.0552 137.538 20.9343 137.538 21.9367C137.538 22.9555 137.744 23.8511 138.155 24.6234C138.582 25.3793 139.141 25.9626 139.831 26.3735C140.537 26.7678 141.301 26.965 142.123 26.965C142.961 26.965 143.725 26.7678 144.415 26.3735C145.122 25.9626 145.681 25.3793 146.091 24.6234C146.502 23.8511 146.708 22.9473 146.708 21.9121Z" fill="#101828"/>
<defs>
<linearGradient id="paint0_linear_190_5952" x1="129.565" y1="17.0121" x2="104.192" y2="23.8992" gradientUnits="userSpaceOnUse">
<stop stop-color="#6941C6"/>
<stop offset="0.48" stop-color="#E3CEFE"/>
<stop offset="1" stop-color="#6941C6"/>
</linearGradient>
</defs>
</svg>
