<svg width="15" height="15" viewBox="0 0 15 15" fill="none" xmlns="http://www.w3.org/2000/svg">
<path d="M4.28675 9.82657H11.3422V12.8941H4.28675V9.82657Z" fill="white"/>
<path d="M11.5876 10.4708C11.5876 9.46193 11.19 8.49442 10.4824 7.78107C9.77485 7.06772 8.81515 6.66697 7.81446 6.66697C6.81377 6.66697 5.85406 7.06772 5.14647 7.78107C4.43887 8.49442 4.04135 9.46193 4.04135 10.4708H7.81446H11.5876Z" fill="white"/>
<path fill-rule="evenodd" clip-rule="evenodd" d="M7.8298 11.4217C9.98987 11.4217 11.7409 9.67062 11.7409 7.51055C11.7409 5.35048 9.98987 3.5994 7.8298 3.5994C5.66973 3.5994 3.91864 5.35048 3.91864 7.51055C3.91864 9.67062 5.66973 11.4217 7.8298 11.4217ZM7.8298 14.4893C11.684 14.4893 14.8085 11.3648 14.8085 7.51055C14.8085 3.65631 11.684 0.53183 7.8298 0.53183C3.97555 0.53183 0.851074 3.65631 0.851074 7.51055C0.851074 11.3648 3.97555 14.4893 7.8298 14.4893Z" fill="white"/>
</svg>
