<svg width="48" height="48" viewBox="0 0 48 48" fill="none" xmlns="http://www.w3.org/2000/svg">
<path d="M4.59594 14.702L4.59594 14.702C4.49658 14.7336 4.41341 14.8026 4.36409 14.8944C4.31666 14.9827 4.30413 15.0855 4.32868 15.1824L8.01011 26.6075C8.08698 26.8204 8.2047 27.0163 8.35669 27.1841L8.35678 27.1842C8.51144 27.3549 8.69863 27.4933 8.90742 27.5911L4.59594 14.702ZM4.59594 14.702L4.5991 14.701M4.59594 14.702L4.5991 14.701M4.5991 14.701L8.9554 13.3019M4.5991 14.701L8.9554 13.3019M12.9076 18.931L12.4252 18.1664L9.45394 13.4566C9.39804 13.3865 9.32298 13.334 9.23769 13.3056L12.9076 18.931ZM12.9076 18.931L13.7168 18.528M12.9076 18.931L13.7168 18.528M13.7168 18.528L30.144 10.3462L30.1746 10.331M13.7168 18.528L30.1746 10.331M30.1746 10.331L30.2041 10.3137M30.1746 10.331L30.2041 10.3137M30.2041 10.3137C31.3738 9.62774 32.6792 9.20544 34.0289 9.0763C35.3789 8.94716 36.7405 9.1143 38.0194 9.56607C39.2979 10.0178 40.4624 10.7432 41.4311 11.6916L41.4313 11.6917M30.2041 10.3137L41.4313 11.6917M41.4313 11.6917C42.3924 12.6324 43.1384 13.7699 43.6181 15.0261C43.7489 15.4743 43.7005 15.9564 43.4824 16.3704C43.2595 16.7928 42.8785 17.1094 42.4226 17.2508L42.4226 17.2508M41.4313 11.6917L42.4226 17.2508M42.4226 17.2508L42.4104 17.2547M42.4226 17.2508L42.4104 17.2547M42.4104 17.2547L31.6189 20.7564L31.6181 20.7567L30.5365 21.1066L30.0329 21.2695M42.4104 17.2547L30.0329 21.2695M30.0329 21.2695L29.8845 21.7775M30.0329 21.2695L29.8845 21.7775M29.8845 21.7775L27.847 28.7495L27.8424 28.7652M29.8845 21.7775L27.8424 28.7652M27.8424 28.7652L27.8383 28.7811M27.8424 28.7652L27.8383 28.7811M27.8383 28.7811C27.8196 28.8537 27.7824 28.9203 27.7301 28.9743L27.8383 28.7811ZM27.5257 29.093L27.5403 29.0887C27.6124 29.0677 27.6777 29.0283 27.73 28.9744L27.5257 29.093ZM27.5257 29.093L27.5111 29.0977M27.5257 29.093L27.5111 29.0977M27.5111 29.0977L22.6084 30.6895L22.5637 30.704M27.5111 29.0977L22.5637 30.704M22.5637 30.704L22.5206 30.7226M22.5637 30.704L22.5206 30.7226M22.5206 30.7226C22.4316 30.7611 22.3338 30.7743 22.2379 30.7609C22.142 30.7475 22.0516 30.7079 21.9766 30.6466C21.9016 30.5852 21.845 30.5044 21.8129 30.4132L21.8129 30.4131M22.5206 30.7226L21.8129 30.4131M21.8129 30.4131C21.7807 30.3217 21.7743 30.2233 21.7944 30.1285L21.7944 30.1285M21.8129 30.4131L21.7944 30.1285M21.7944 30.1285L21.7957 30.1224M21.7944 30.1285L21.7957 30.1224M21.7957 30.1224L22.8144 25.156L23.1572 23.4849M21.7957 30.1224L23.1572 23.4849M23.1572 23.4849L21.5316 24.0022M23.1572 23.4849L21.5316 24.0022M21.5316 24.0022L20.8312 24.225L20.8268 24.2264M21.5316 24.0022L20.8268 24.2264M20.8268 24.2264L10.2892 27.6328L10.269 27.6394M20.8268 24.2264L10.269 27.6394M10.269 27.6394L10.2491 27.6468M10.269 27.6394L10.2491 27.6468M10.2491 27.6468C10.0329 27.7269 9.80294 27.7633 9.57265 27.7538M10.2491 27.6468L9.57265 27.7538M8.9554 13.3019C9.04757 13.2738 9.14619 13.2751 9.23766 13.3056L8.9554 13.3019ZM9.57265 27.7538C9.34235 27.7442 9.11624 27.6889 8.9075 27.5911L9.57265 27.7538Z" fill="#D7E0FF" stroke="#5816F0" stroke-width="2"/>
<path d="M4.29331 13.7489L8.65481 12.3481C8.94802 12.2567 9.26253 12.2598 9.55392 12.3569C9.84528 12.454 10.0987 12.6403 10.2784 12.8893L13.271 17.6329L29.6982 9.45109C30.9935 8.69149 32.439 8.22386 33.9336 8.08085C35.4287 7.93784 36.9364 8.12294 38.3524 8.62317C39.7682 9.12341 41.0578 9.92672 42.1307 10.977C43.2039 12.0273 44.0348 13.2993 44.5655 14.704C44.7845 15.4133 44.7129 16.1804 44.3668 16.8369C44.0205 17.4936 43.428 17.9859 42.719 18.2059L31.9267 21.7078L30.8443 22.058L28.8068 29.0301C28.7449 29.2709 28.6213 29.4915 28.4483 29.6701C28.2752 29.8488 28.0587 29.9793 27.8199 30.0488L22.9172 31.6406C22.6599 31.7518 22.377 31.7901 22.0994 31.7512C21.8219 31.7124 21.5603 31.598 21.3434 31.4205C21.1265 31.2431 20.9625 31.0093 20.8695 30.7449C20.7765 30.4806 20.758 30.1957 20.8161 29.9215L21.8348 24.9551L21.1344 25.1779L10.5968 28.5844C10.2563 28.7106 9.89405 28.768 9.53119 28.7529C9.16832 28.7378 8.81208 28.6507 8.48322 28.4967C8.15436 28.3426 7.8594 28.1246 7.6156 27.8555C7.37177 27.5863 7.18394 27.2714 7.06303 26.9289L3.37008 15.468C3.2702 15.1177 3.31074 14.7422 3.48311 14.4213C3.65547 14.1003 3.94609 13.8592 4.29331 13.7489Z" stroke="#5816F0" stroke-width="2" stroke-linecap="round" stroke-linejoin="round"/>
<path d="M44.6931 44.6932H3.30664" stroke="#5816F0" stroke-width="2" stroke-linecap="round" stroke-linejoin="round"/>
</svg>
