<svg width="24" height="21" viewBox="0 0 24 21" fill="none" xmlns="http://www.w3.org/2000/svg">
<path d="M17 19.2764V17.2764C17 16.2155 16.5786 15.1981 15.8284 14.4479C15.0783 13.6978 14.0609 13.2764 13 13.2764H5C3.93913 13.2764 2.92172 13.6978 2.17157 14.4479C1.42143 15.1981 1 16.2155 1 17.2764V19.2764M23 19.2764V17.2764C22.9993 16.3901 22.7044 15.5291 22.1614 14.8287C21.6184 14.1282 20.8581 13.6279 20 13.4064M16 1.40637C16.8604 1.62667 17.623 2.12707 18.1676 2.82868C18.7122 3.53029 19.0078 4.3932 19.0078 5.28137C19.0078 6.16954 18.7122 7.03245 18.1676 7.73406C17.623 8.43567 16.8604 8.93607 16 9.15637M13 5.27637C13 7.48551 11.2091 9.27637 9 9.27637C6.79086 9.27637 5 7.48551 5 5.27637C5 3.06723 6.79086 1.27637 9 1.27637C11.2091 1.27637 13 3.06723 13 5.27637Z" stroke="#D6BBFB" stroke-width="2" stroke-linecap="round" stroke-linejoin="round"/>
</svg>
