<svg width="48" height="48" viewBox="0 0 48 48" fill="none" xmlns="http://www.w3.org/2000/svg">
<path d="M9.67378 6.49036H6.49021C5.64587 6.49036 4.83612 6.82578 4.23909 7.42279C3.64205 8.01984 3.30664 8.82958 3.30664 9.67393V12.8575" stroke="#5816F0" stroke-width="2" stroke-linecap="round" stroke-linejoin="round"/>
<path d="M44.6933 12.8575V9.67393C44.6933 8.82958 44.3578 8.01984 43.7608 7.42279C43.1639 6.82578 42.354 6.49036 41.5097 6.49036H38.3262" stroke="#5816F0" stroke-width="2" stroke-linecap="round" stroke-linejoin="round"/>
<path d="M38.3262 41.5096H41.5097C42.354 41.5096 43.1639 41.1741 43.7608 40.5772C44.3578 39.9803 44.6933 39.1704 44.6933 38.3261V35.1425" stroke="#5816F0" stroke-width="2" stroke-linecap="round" stroke-linejoin="round"/>
<path d="M3.30664 35.1425V38.3261C3.30664 39.1704 3.64205 39.9803 4.23909 40.5772C4.83612 41.1741 5.64587 41.5096 6.49021 41.5096H9.67378" stroke="#5816F0" stroke-width="2" stroke-linecap="round" stroke-linejoin="round"/>
<path d="M24 25.5918C24.8791 25.5918 25.5918 24.8791 25.5918 24C25.5918 23.1209 24.8791 22.4082 24 22.4082C23.1209 22.4082 22.4082 23.1209 22.4082 24C22.4082 24.8791 23.1209 25.5918 24 25.5918Z" stroke="#5816F0" stroke-width="2" stroke-linecap="round" stroke-linejoin="round"/>
<path d="M11.2656 25.5918C12.1447 25.5918 12.8574 24.8791 12.8574 24C12.8574 23.1209 12.1447 22.4082 11.2656 22.4082C10.3865 22.4082 9.67383 23.1209 9.67383 24C9.67383 24.8791 10.3865 25.5918 11.2656 25.5918Z" stroke="#5816F0" stroke-width="2" stroke-linecap="round" stroke-linejoin="round"/>
<path d="M36.7344 25.5918C37.6133 25.5918 38.3261 24.8791 38.3261 24C38.3261 23.1209 37.6133 22.4082 36.7344 22.4082C35.8554 22.4082 35.1426 23.1209 35.1426 24C35.1426 24.8791 35.8554 25.5918 36.7344 25.5918Z" stroke="#5816F0" stroke-width="2" stroke-linecap="round" stroke-linejoin="round"/>
<path d="M24 38.3261C24.8791 38.3261 25.5918 37.6133 25.5918 36.7343C25.5918 35.8553 24.8791 35.1425 24 35.1425C23.1209 35.1425 22.4082 35.8553 22.4082 36.7343C22.4082 37.6133 23.1209 38.3261 24 38.3261Z" stroke="#5816F0" stroke-width="2" stroke-linecap="round" stroke-linejoin="round"/>
<path d="M24 12.8575C24.8791 12.8575 25.5918 12.1448 25.5918 11.2657C25.5918 10.3866 24.8791 9.67393 24 9.67393C23.1209 9.67393 22.4082 10.3866 22.4082 11.2657C22.4082 12.1448 23.1209 12.8575 24 12.8575Z" stroke="#5816F0" stroke-width="2" stroke-linecap="round" stroke-linejoin="round"/>
</svg>
