<svg width="14" height="14" viewBox="0 0 14 14" fill="none" xmlns="http://www.w3.org/2000/svg">
<g clip-path="url(#clip0_1432_6739)">
<path d="M12.6996 4.94978V5.50691C12.6996 5.75317 12.6017 5.98935 12.4276 6.16349C12.2535 6.33762 12.0173 6.43545 11.771 6.43545H2.22932C1.98306 6.43545 1.74688 6.33762 1.57274 6.16349C1.39861 5.98935 1.30078 5.75317 1.30078 5.50691V4.94978C1.30078 4.70352 1.39861 4.46734 1.57274 4.2932C1.74688 4.11907 1.98306 4.02124 2.22932 4.02124H11.771C12.0173 4.02124 12.2535 4.11907 12.4276 4.2932C12.6017 4.46734 12.6996 4.70352 12.6996 4.94978Z" fill="white"/>
<path d="M11.899 11.86V6.43545H2.10107V11.86C2.10107 12.1063 2.1989 12.3424 2.37304 12.5166C2.54717 12.6907 2.78335 12.7885 3.02962 12.7885H10.9705C11.2168 12.7885 11.4529 12.6907 11.6271 12.5166C11.8012 12.3424 11.899 12.1063 11.899 11.86Z" fill="#D7E0FF"/>
<path d="M11.899 11.86V6.43545H2.10107V11.86C2.10107 12.1063 2.1989 12.3424 2.37304 12.5166C2.54717 12.6907 2.78335 12.7885 3.02962 12.7885H10.9705C11.2168 12.7885 11.4529 12.6907 11.6271 12.5166C11.8012 12.3424 11.899 12.1063 11.899 11.86Z" stroke="#5816F0" stroke-linecap="round" stroke-linejoin="round"/>
<path d="M7 12.7885V6.43452" stroke="#5816F0" stroke-linecap="round" stroke-linejoin="round"/>
<path d="M12.6996 4.94978V5.50691C12.6996 5.75317 12.6017 5.98935 12.4276 6.16349C12.2535 6.33762 12.0173 6.43545 11.771 6.43545H2.22932C1.98306 6.43545 1.74688 6.33762 1.57274 6.16349C1.39861 5.98935 1.30078 5.75317 1.30078 5.50691V4.94978C1.30078 4.70352 1.39861 4.46734 1.57274 4.2932C1.74688 4.11907 1.98306 4.02124 2.22932 4.02124H11.771C12.0173 4.02124 12.2535 4.11907 12.4276 4.2932C12.6017 4.46734 12.6996 4.70352 12.6996 4.94978Z" stroke="#5816F0" stroke-linecap="round" stroke-linejoin="round"/>
<path d="M7.00028 4.02124C7.00028 3.20877 6.05316 1.31268 4.63064 1.31268C2.31764 1.31268 3.15983 4.02124 4.26758 4.02124" stroke="#5816F0" stroke-linecap="round" stroke-linejoin="round"/>
<path d="M7 4.02124C7 3.20877 7.94711 1.31268 9.36964 1.31268C11.6826 1.31268 10.8404 4.02124 9.7327 4.02124" stroke="#5816F0" stroke-linecap="round" stroke-linejoin="round"/>
</g>
<defs>
<clipPath id="clip0_1432_6739">
<rect width="14" height="14" fill="white"/>
</clipPath>
</defs>
</svg>
