<svg width="25" height="24" viewBox="0 0 25 24" fill="none" xmlns="http://www.w3.org/2000/svg">
<path d="M8.93433 10.4082L16.0655 6.82666" stroke="#4147D5" stroke-width="2" stroke-linecap="round" stroke-linejoin="round"/>
<path d="M8.93433 13.5918L16.0655 17.1733" stroke="#4147D5" stroke-width="2" stroke-linecap="round" stroke-linejoin="round"/>
<path d="M5.73484 15.5815C6.68472 15.5815 7.59569 15.2042 8.26735 14.5325C8.93902 13.8608 9.31636 12.9499 9.31636 12C9.31636 11.0501 8.93902 10.1391 8.26735 9.46746C7.59569 8.79579 6.68472 8.41846 5.73484 8.41846C4.78496 8.41846 3.87399 8.79579 3.20232 9.46746C2.53066 10.1391 2.15332 11.0501 2.15332 12C2.15332 12.9499 2.53066 13.8608 3.20232 14.5325C3.87399 15.2042 4.78496 15.5815 5.73484 15.5815Z" fill="#D7E0FF"/>
<path d="M19.2651 22.3466C20.215 22.3466 21.126 21.9693 21.7976 21.2976C22.4693 20.626 22.8466 19.715 22.8466 18.7651C22.8466 17.8152 22.4693 16.9043 21.7976 16.2326C21.126 15.5609 20.215 15.1836 19.2651 15.1836C18.3152 15.1836 17.4043 15.5609 16.7326 16.2326C16.0609 16.9043 15.6836 17.8152 15.6836 18.7651C15.6836 19.715 16.0609 20.626 16.7326 21.2976C17.4043 21.9693 18.3152 22.3466 19.2651 22.3466Z" fill="#D7E0FF"/>
<path d="M19.2651 8.81636C19.7354 8.81636 20.2012 8.72372 20.6357 8.54373C21.0702 8.36374 21.4651 8.09993 21.7976 7.76735C22.1302 7.43478 22.394 7.03996 22.574 6.60543C22.754 6.1709 22.8466 5.70517 22.8466 5.23484C22.8466 4.76451 22.754 4.29878 22.574 3.86425C22.394 3.42972 22.1302 3.0349 21.7976 2.70232C21.4651 2.36975 21.0702 2.10594 20.6357 1.92595C20.2012 1.74596 19.7354 1.65332 19.2651 1.65332C18.3152 1.65332 17.4043 2.03066 16.7326 2.70232C16.0609 3.37399 15.6836 4.28496 15.6836 5.23484C15.6836 6.18472 16.0609 7.09569 16.7326 7.76735C17.4043 8.43902 18.3152 8.81636 19.2651 8.81636Z" fill="#D7E0FF"/>
<path d="M5.73484 15.5815C6.68472 15.5815 7.59569 15.2042 8.26735 14.5325C8.93902 13.8608 9.31636 12.9499 9.31636 12C9.31636 11.0501 8.93902 10.1391 8.26735 9.46746C7.59569 8.79579 6.68472 8.41846 5.73484 8.41846C4.78496 8.41846 3.87399 8.79579 3.20232 9.46746C2.53066 10.1391 2.15332 11.0501 2.15332 12C2.15332 12.9499 2.53066 13.8608 3.20232 14.5325C3.87399 15.2042 4.78496 15.5815 5.73484 15.5815Z" stroke="#4147D5" stroke-width="2" stroke-linecap="round" stroke-linejoin="round"/>
<path d="M19.2651 22.3466C20.215 22.3466 21.126 21.9693 21.7976 21.2976C22.4693 20.626 22.8466 19.715 22.8466 18.7651C22.8466 17.8152 22.4693 16.9043 21.7976 16.2326C21.126 15.5609 20.215 15.1836 19.2651 15.1836C18.3152 15.1836 17.4043 15.5609 16.7326 16.2326C16.0609 16.9043 15.6836 17.8152 15.6836 18.7651C15.6836 19.715 16.0609 20.626 16.7326 21.2976C17.4043 21.9693 18.3152 22.3466 19.2651 22.3466Z" stroke="#4147D5" stroke-width="2" stroke-linecap="round" stroke-linejoin="round"/>
<path d="M19.2651 8.81636C19.7354 8.81636 20.2012 8.72372 20.6357 8.54373C21.0702 8.36374 21.4651 8.09993 21.7976 7.76735C22.1302 7.43478 22.394 7.03996 22.574 6.60543C22.754 6.1709 22.8466 5.70517 22.8466 5.23484C22.8466 4.76451 22.754 4.29878 22.574 3.86425C22.394 3.42972 22.1302 3.0349 21.7976 2.70232C21.4651 2.36975 21.0702 2.10594 20.6357 1.92595C20.2012 1.74596 19.7354 1.65332 19.2651 1.65332C18.3152 1.65332 17.4043 2.03066 16.7326 2.70232C16.0609 3.37399 15.6836 4.28496 15.6836 5.23484C15.6836 6.18472 16.0609 7.09569 16.7326 7.76735C17.4043 8.43902 18.3152 8.81636 19.2651 8.81636Z" stroke="#4147D5" stroke-width="2" stroke-linecap="round" stroke-linejoin="round"/>
</svg>
