<svg width="22" height="22" viewBox="0 0 22 22" fill="none" xmlns="http://www.w3.org/2000/svg">
<path d="M18.4719 9.70671C18.6135 9.70671 18.6905 9.61266 18.7028 9.42454C18.7643 8.66581 18.8321 8.03249 18.906 7.52458C18.9798 7.0104 19.0814 6.59342 19.2107 6.27362C19.3401 5.94756 19.5125 5.6936 19.728 5.51176C19.9373 5.32991 20.2082 5.1951 20.5407 5.10731C20.8671 5.01325 21.2704 4.94114 21.7506 4.89098C21.843 4.87844 21.9076 4.85336 21.9446 4.81573C21.9815 4.77184 22 4.72481 22 4.67465C22 4.61194 21.9815 4.55551 21.9446 4.50534C21.9076 4.45518 21.843 4.42696 21.7506 4.42069C21.2642 4.36426 20.8578 4.29215 20.5315 4.20436C20.199 4.11657 19.9281 3.98803 19.7187 3.81873C19.5032 3.64942 19.3339 3.41741 19.2107 3.1227C19.0814 2.82799 18.9798 2.44862 18.906 1.98461C18.8321 1.51432 18.7643 0.937438 18.7028 0.253955C18.6905 0.153627 18.6658 0.0877868 18.6289 0.0564344C18.5858 0.0188115 18.5334 0 18.4719 0C18.4226 0 18.3764 0.0188115 18.3333 0.0564344C18.2841 0.0877868 18.2564 0.150492 18.2502 0.244549C18.1948 0.934302 18.1301 1.51432 18.0563 1.98461C17.9762 2.44862 17.8746 2.83112 17.7515 3.13211C17.6222 3.42682 17.4528 3.65883 17.2435 3.82813C17.028 3.99743 16.7571 4.12598 16.4307 4.21377C16.0982 4.29528 15.6919 4.36426 15.2116 4.42069C15.1192 4.42696 15.0546 4.45518 15.0176 4.50534C14.9745 4.55551 14.953 4.61194 14.953 4.67465C14.953 4.72481 14.9745 4.77184 15.0176 4.81573C15.0546 4.85336 15.1192 4.87844 15.2116 4.89098C15.6919 4.94114 16.0982 5.01325 16.4307 5.10731C16.7571 5.1951 17.028 5.32991 17.2435 5.51176C17.4528 5.6936 17.6222 5.94756 17.7515 6.27362C17.8808 6.59342 17.9824 7.0104 18.0563 7.52458C18.1301 8.03249 18.1948 8.66581 18.2502 9.42454C18.2564 9.61266 18.3303 9.70671 18.4719 9.70671ZM8.09992 20.8525C8.16149 20.8525 8.21998 20.8306 8.2754 20.7867C8.33081 20.7428 8.36468 20.6675 8.37699 20.5609C8.48783 19.4009 8.61097 18.3788 8.74643 17.4947C8.87573 16.6042 9.03275 15.833 9.21746 15.1808C9.39603 14.5287 9.61461 13.9738 9.87322 13.516C10.1318 13.0583 10.4428 12.6758 10.806 12.3685C11.1632 12.055 11.588 11.7979 12.0806 11.5973C12.567 11.3966 13.1335 11.2304 13.78 11.0988C14.4265 10.9671 15.1685 10.8479 16.0059 10.7413C16.1167 10.7288 16.1968 10.6943 16.246 10.6379C16.2953 10.5814 16.3199 10.5219 16.3199 10.4592C16.3199 10.2961 16.2152 10.2021 16.0059 10.177C15.033 10.0516 14.1864 9.9105 13.466 9.75374C12.7456 9.59071 12.1268 9.38378 11.6096 9.13296C11.0924 8.87587 10.6583 8.5404 10.3073 8.12655C9.95634 7.7127 9.66695 7.19538 9.43913 6.5746C9.20515 5.94756 9.0112 5.18569 8.85726 4.28901C8.69717 3.39233 8.55556 2.32949 8.43241 1.10047C8.4201 0.987602 8.38931 0.906085 8.34005 0.855921C8.28463 0.805757 8.22306 0.780676 8.15533 0.780676C7.99524 0.780676 7.90288 0.887274 7.87825 1.10047C7.74279 2.32949 7.5981 3.39233 7.44416 4.28901C7.28407 5.18569 7.09012 5.94756 6.8623 6.5746C6.62832 7.19538 6.33585 7.7127 5.98489 8.12655C5.63392 8.53413 5.20291 8.86647 4.69185 9.12356C4.1808 9.38065 3.56507 9.59071 2.84467 9.75374C2.12427 9.9105 1.27764 10.0516 0.304785 10.177C0.101595 10.2021 0 10.2961 0 10.4592C0 10.5219 0.0246296 10.5814 0.0738869 10.6379C0.116989 10.6943 0.193954 10.7288 0.304785 10.7413C1.14218 10.8479 1.88413 10.9671 2.53065 11.0988C3.17101 11.2304 3.7344 11.3966 4.22082 11.5973C4.70725 11.7979 5.12594 12.055 5.47691 12.3685C5.82788 12.6758 6.12958 13.0583 6.38203 13.516C6.63448 13.9738 6.84691 14.5287 7.01931 15.1808C7.19172 15.833 7.34257 16.6042 7.47187 17.4947C7.59502 18.3788 7.71201 19.4009 7.82284 20.5609C7.82899 20.6675 7.85978 20.7428 7.9152 20.7867C7.96446 20.8306 8.02603 20.8525 8.09992 20.8525ZM15.0453 22C15.187 22 15.267 21.9059 15.2855 21.7178C15.3409 20.9591 15.4086 20.3226 15.4887 19.8085C15.5626 19.3006 15.6641 18.8836 15.7935 18.5575C15.9166 18.2377 16.0859 17.9869 16.3014 17.805C16.5108 17.6232 16.7817 17.4884 17.1142 17.4006C17.4405 17.3065 17.8438 17.2344 18.3241 17.1843C18.4165 17.1717 18.4811 17.1466 18.5181 17.109C18.555 17.0651 18.5735 17.015 18.5735 16.9585C18.5735 16.8958 18.555 16.8425 18.5181 16.7986C18.4811 16.7485 18.4165 16.7171 18.3241 16.7046C17.8377 16.6481 17.4313 16.576 17.105 16.4882C16.7725 16.4005 16.5015 16.2719 16.2922 16.1026C16.0767 15.9333 15.9074 15.7013 15.7842 15.4066C15.6549 15.1119 15.5533 14.7325 15.4794 14.2685C15.4055 13.7982 15.3409 13.2213 15.2855 12.5378C15.2732 12.4375 15.2455 12.3717 15.2024 12.3403C15.1592 12.3027 15.1069 12.2839 15.0453 12.2839C14.9961 12.2839 14.9499 12.3027 14.9068 12.3403C14.8637 12.3717 14.836 12.4344 14.8237 12.5284C14.7683 13.2182 14.7036 13.7982 14.6297 14.2685C14.5497 14.7325 14.4481 15.115 14.3249 15.416C14.1956 15.7107 14.0263 15.9427 13.817 16.112C13.6015 16.2813 13.3305 16.4099 13.0042 16.4976C12.6717 16.5792 12.2653 16.6481 11.7851 16.7046C11.6927 16.7171 11.628 16.7485 11.5911 16.7986C11.5542 16.8425 11.5357 16.8958 11.5357 16.9585C11.5357 17.015 11.5542 17.0651 11.5911 17.109C11.628 17.1466 11.6927 17.1717 11.7851 17.1843C12.2715 17.2344 12.6809 17.3065 13.0134 17.4006C13.3398 17.4884 13.6107 17.6232 13.8262 17.805C14.0355 17.9806 14.2049 18.2283 14.3342 18.5481C14.4573 18.8742 14.5558 19.2943 14.6297 19.8085C14.7036 20.3226 14.7683 20.9591 14.8237 21.7178C14.8421 21.9059 14.916 22 15.0453 22Z" fill="#F4F3FF"/>
</svg>
