<svg width="18" height="16" viewBox="0 0 18 16" fill="none" xmlns="http://www.w3.org/2000/svg">
<path d="M14.3934 7.05943C14.5037 7.05943 14.5637 6.99102 14.5733 6.85421C14.6213 6.30241 14.6741 5.84181 14.7316 5.47242C14.7892 5.09847 14.8684 4.79521 14.9691 4.56263C15.0699 4.3255 15.2042 4.1408 15.3722 4.00855C15.5353 3.8763 15.7464 3.77825 16.0055 3.71441C16.2598 3.646 16.574 3.59356 16.9483 3.55708C17.0202 3.54796 17.0706 3.52971 17.0994 3.50235C17.1282 3.47043 17.1426 3.43623 17.1426 3.39974C17.1426 3.35414 17.1282 3.3131 17.0994 3.27661C17.0706 3.24013 17.0202 3.21961 16.9483 3.21505C16.5692 3.17401 16.2526 3.12156 15.9983 3.05772C15.7392 2.99387 15.5281 2.90038 15.365 2.77726C15.197 2.65413 15.0651 2.48539 14.9691 2.27106C14.8684 2.05672 14.7892 1.78082 14.7316 1.44335C14.6741 1.10133 14.6213 0.681773 14.5733 0.184694C14.5637 0.111729 14.5445 0.0638449 14.5157 0.0410432C14.4821 0.0136811 14.4414 0 14.3934 0C14.355 0 14.319 0.0136811 14.2854 0.0410432C14.2471 0.0638449 14.2255 0.109448 14.2207 0.177854C14.1775 0.679493 14.1271 1.10133 14.0695 1.44335C14.0072 1.78082 13.928 2.059 13.832 2.2779C13.7313 2.49223 13.5993 2.66097 13.4362 2.7841C13.2683 2.90723 13.0572 3.00071 12.8029 3.06456C12.5438 3.12384 12.2271 3.17401 11.8529 3.21505C11.7809 3.21961 11.7306 3.24013 11.7018 3.27661C11.6682 3.3131 11.6514 3.35414 11.6514 3.39974C11.6514 3.43623 11.6682 3.47043 11.7018 3.50235C11.7306 3.52971 11.7809 3.54796 11.8529 3.55708C12.2271 3.59356 12.5438 3.646 12.8029 3.71441C13.0572 3.77825 13.2683 3.8763 13.4362 4.00855C13.5993 4.1408 13.7313 4.3255 13.832 4.56263C13.9328 4.79521 14.012 5.09847 14.0695 5.47242C14.1271 5.84181 14.1775 6.30241 14.2207 6.85421C14.2255 6.99102 14.283 7.05943 14.3934 7.05943ZM6.31134 15.1655C6.35932 15.1655 6.4049 15.1495 6.44808 15.1176C6.49127 15.0856 6.51765 15.0309 6.52725 14.9534C6.61361 14.1097 6.70957 13.3664 6.81512 12.7234C6.91588 12.0758 7.03822 11.5149 7.18216 11.0406C7.3213 10.5663 7.49162 10.1627 7.69314 9.82984C7.89465 9.49694 8.13694 9.21875 8.42002 8.9953C8.69829 8.76728 9.02935 8.58031 9.41318 8.43437C9.79221 8.28844 10.2336 8.16759 10.7374 8.07183C11.2412 7.97606 11.8193 7.88941 12.4718 7.81189C12.5582 7.80276 12.6206 7.77768 12.659 7.73664C12.6973 7.6956 12.7165 7.65227 12.7165 7.60667C12.7165 7.4881 12.635 7.41969 12.4718 7.40145C11.7138 7.31025 11.0541 7.20764 10.4927 7.09363C9.93135 6.97506 9.44916 6.82457 9.04614 6.64215C8.64312 6.45518 8.30487 6.2112 8.03139 5.91022C7.75791 5.60923 7.53241 5.23301 7.35489 4.78153C7.17257 4.3255 7.02143 3.77141 6.90148 3.11928C6.77674 2.46715 6.66639 1.69417 6.57043 0.800342C6.56083 0.718256 6.53685 0.658971 6.49846 0.622488C6.45528 0.586005 6.4073 0.567764 6.35453 0.567764C6.22978 0.567764 6.15781 0.64529 6.13862 0.800342C6.03307 1.69417 5.92032 2.46715 5.80037 3.11928C5.67562 3.77141 5.52449 4.3255 5.34697 4.78153C5.16465 5.23301 4.93675 5.60923 4.66327 5.91022C4.38979 6.20664 4.05394 6.44834 3.65571 6.63531C3.25749 6.82229 2.7777 6.97506 2.21635 7.09363C1.65499 7.20764 0.995283 7.31025 0.237217 7.40145C0.078886 7.41969 -0.000278473 7.4881 -0.000278473 7.60667C-0.000278473 7.65227 0.0189133 7.6956 0.0572968 7.73664C0.0908813 7.77768 0.150856 7.80276 0.237217 7.81189C0.88973 7.88941 1.46788 7.97606 1.97165 8.07183C2.47063 8.16759 2.90964 8.28844 3.28867 8.43437C3.66771 8.58031 3.99396 8.76728 4.26744 8.9953C4.54092 9.21875 4.77602 9.49694 4.97273 9.82984C5.16945 10.1627 5.33497 10.5663 5.46931 11.0406C5.60366 11.5149 5.7212 12.0758 5.82196 12.7234C5.91792 13.3664 6.00908 14.1097 6.09544 14.9534C6.10024 15.0309 6.12423 15.0856 6.16741 15.1176C6.20579 15.1495 6.25377 15.1655 6.31134 15.1655ZM11.7234 16C11.8337 16 11.8961 15.9316 11.9105 15.7948C11.9537 15.243 12.0064 14.7801 12.0688 14.4062C12.1264 14.0368 12.2056 13.7335 12.3063 13.4964C12.4023 13.2638 12.5342 13.0814 12.7021 12.9491C12.8653 12.8169 13.0764 12.7188 13.3355 12.655C13.5897 12.5866 13.904 12.5341 14.2782 12.4976C14.3502 12.4885 14.4006 12.4703 14.4294 12.4429C14.4582 12.411 14.4726 12.3745 14.4726 12.3335C14.4726 12.2879 14.4582 12.2491 14.4294 12.2172C14.4006 12.1807 14.3502 12.1579 14.2782 12.1488C13.8992 12.1077 13.5825 12.0553 13.3283 11.9914C13.0692 11.9276 12.8581 11.8341 12.6949 11.711C12.527 11.5879 12.3951 11.4191 12.2991 11.2048C12.1984 10.9905 12.1192 10.7146 12.0616 10.3771C12.004 10.0351 11.9537 9.61551 11.9105 9.11843C11.9009 9.04546 11.8793 8.99758 11.8457 8.97478C11.8121 8.94741 11.7713 8.93373 11.7234 8.93373C11.685 8.93373 11.649 8.94741 11.6154 8.97478C11.5818 8.99758 11.5602 9.04318 11.5506 9.11159C11.5075 9.61322 11.4571 10.0351 11.3995 10.3771C11.3371 10.7146 11.258 10.9927 11.162 11.2116C11.0613 11.426 10.9293 11.5947 10.7662 11.7178C10.5983 11.841 10.3872 11.9344 10.1329 11.9983C9.87378 12.0576 9.55712 12.1077 9.18288 12.1488C9.11091 12.1579 9.06053 12.1807 9.03175 12.2172C9.00296 12.2491 8.98857 12.2879 8.98857 12.3335C8.98857 12.3745 9.00296 12.411 9.03175 12.4429C9.06053 12.4703 9.11091 12.4885 9.18288 12.4976C9.56191 12.5341 9.88097 12.5866 10.1401 12.655C10.3943 12.7188 10.6055 12.8169 10.7734 12.9491C10.9365 13.0768 11.0685 13.2569 11.1692 13.4895C11.2652 13.7267 11.3419 14.0322 11.3995 14.4062C11.4571 14.7801 11.5075 15.243 11.5506 15.7948C11.565 15.9316 11.6226 16 11.7234 16Z" fill="#875FE4"/>
</svg>
