<svg width="30" height="30" viewBox="0 0 30 30" fill="none" xmlns="http://www.w3.org/2000/svg">
<path fill-rule="evenodd" clip-rule="evenodd" d="M28.7955 15.0001C28.7955 22.6192 22.6192 28.7955 15.0001 28.7955C7.38104 28.7955 1.20459 22.6192 1.20459 15.0001C1.20459 12.2967 1.98215 9.77504 3.32582 7.6464C3.31509 7.73792 3.30891 7.83017 3.30753 7.92277C3.30753 10.8689 6.83257 13.2871 7.66582 13.2871C8.49906 13.2871 12.0241 10.8689 12.0241 7.92277C11.9948 5.94378 9.77154 4.10796 7.66582 6.69167C6.73789 5.55311 5.78715 5.27279 5.01138 5.48473C7.52404 2.84784 11.0702 1.20459 15.0001 1.20459C18.9302 1.20459 22.4766 2.84806 24.9893 5.4852C24.2131 5.27237 23.2616 5.55227 22.3331 6.69167C20.2273 4.10796 18.004 5.94378 17.9747 7.92277C17.9747 10.8689 21.4999 13.2871 22.3331 13.2871C23.1663 13.2871 26.6912 10.8689 26.6912 7.92277C26.6899 7.82933 26.6836 7.73622 26.6727 7.64387C28.0173 9.77304 28.7955 12.2957 28.7955 15.0001Z" fill="#D7E0FF"/>
<path d="M7.6659 6.69154C5.56018 4.10784 3.33688 5.94366 3.30762 7.92265C3.30762 10.8688 6.83266 13.287 7.6659 13.287C8.49915 13.287 12.0242 10.8688 12.0242 7.92265C11.9949 5.94366 9.77163 4.10784 7.6659 6.69154Z" fill="white"/>
<path d="M22.333 6.69154C24.4386 4.10784 26.662 5.94366 26.6911 7.92265C26.6911 10.8688 23.1662 13.287 22.333 13.287C21.4997 13.287 17.9746 10.8688 17.9746 7.92265C18.0039 5.94366 20.2272 4.10784 22.333 6.69154Z" fill="white"/>
<path d="M28.7955 15C28.7955 22.6191 22.6192 28.7955 15.0001 28.7955C7.38104 28.7955 1.20459 22.6191 1.20459 15" stroke="#5816F0" stroke-width="2" stroke-linecap="round" stroke-linejoin="round"/>
<path d="M11.8164 1.57374C12.8384 1.33233 13.9043 1.20459 15 1.20459C16.0957 1.20459 17.1616 1.33233 18.1835 1.57374" stroke="#5816F0" stroke-width="2" stroke-linecap="round" stroke-linejoin="round"/>
<path d="M7.66591 6.69154C5.56018 4.10784 3.33688 5.94366 3.30762 7.92265C3.30762 10.8688 6.83266 13.287 7.66591 13.287C8.49915 13.287 12.0242 10.8688 12.0242 7.92265C11.9949 5.94366 9.77163 4.10784 7.66591 6.69154Z" stroke="#5816F0" stroke-width="2" stroke-linecap="round" stroke-linejoin="round"/>
<path d="M22.333 6.69154C24.4386 4.10784 26.662 5.94366 26.6911 7.92265C26.6911 10.8688 23.1662 13.287 22.333 13.287C21.4997 13.287 17.9746 10.8688 17.9746 7.92265C18.0039 5.94366 20.2272 4.10784 22.333 6.69154Z" stroke="#5816F0" stroke-width="2" stroke-linecap="round" stroke-linejoin="round"/>
<path d="M7.99609 17.1226C9.05728 20.9428 13.302 23.2775 17.1223 22.2163C19.457 21.3673 21.3671 19.4572 22.0039 17.1226" stroke="#5816F0" stroke-width="2" stroke-linecap="round" stroke-linejoin="round"/>
</svg>
