<svg width="20" height="22" viewBox="0 0 20 22" fill="none" xmlns="http://www.w3.org/2000/svg">
<path d="M3.12588 19.963C2.68913 19.963 2.28046 19.8207 1.89986 19.5362C1.5255 19.2516 1.19482 18.8571 0.907815 18.3527C0.620808 17.8483 0.396194 17.2631 0.233973 16.597C0.0779909 15.9309 0 15.2163 0 14.4533C0 13.6837 0.102948 12.9336 0.308844 12.2028C0.52098 11.4656 0.801747 10.8125 1.15115 10.2434C1.40072 9.85538 1.70332 9.58054 2.05896 9.41887C2.42084 9.2572 2.81079 9.19253 3.22883 9.22487L5.24099 9.38007C5.40945 9.13433 5.61223 8.88536 5.84932 8.63316C6.08641 8.37449 6.33287 8.10935 6.58868 7.83774C6.84449 7.55967 7.08158 7.27513 7.29995 6.98413C7.51833 6.69312 7.69615 6.39242 7.83341 6.08201C7.97068 5.76514 8.03931 5.43533 8.03931 5.09259C8.03931 4.71105 8.01435 4.35215 7.96444 4.01587C7.91452 3.67313 7.86149 3.34009 7.80533 3.01676C7.75542 2.69342 7.73046 2.36684 7.73046 2.03704C7.73046 1.62963 7.81469 1.27396 7.98315 0.970018C8.15161 0.666079 8.38871 0.430041 8.69443 0.261905C9.00016 0.0873016 9.35579 0 9.76135 0C10.2543 0 10.7097 0.109935 11.1277 0.329806C11.5458 0.54321 11.9077 0.847149 12.2134 1.24162C12.5253 1.62963 12.7656 2.08877 12.934 2.61905C13.1087 3.14932 13.1961 3.7281 13.1961 4.35538C13.1961 4.67225 13.1742 4.97619 13.1306 5.2672C13.0869 5.55173 13.0401 5.83304 12.9902 6.11111C12.9465 6.38272 12.9247 6.66079 12.9247 6.94533C12.9247 7.26867 13.0682 7.51764 13.3552 7.69224C13.6484 7.86684 14.0571 7.94444 14.5812 7.92504C14.9493 7.91211 15.3642 7.90241 15.8259 7.89594C16.2876 7.88301 16.7743 7.87654 17.2859 7.87654C17.6353 7.87654 17.9629 7.94444 18.2686 8.08025C18.5743 8.20958 18.8426 8.39065 19.0735 8.62346C19.3106 8.84979 19.4946 9.11493 19.6256 9.41887C19.7567 9.72281 19.8222 10.0462 19.8222 10.3889C19.8222 10.6734 19.7754 10.958 19.6818 11.2425C19.5882 11.5206 19.4509 11.776 19.27 12.0088C19.7567 12.5132 20 13.0985 20 13.7646C20 14.1396 19.9158 14.4985 19.7473 14.8413C19.5851 15.1775 19.3418 15.4782 19.0173 15.7434C19.2544 16.1508 19.373 16.5711 19.373 17.0044C19.373 17.4377 19.27 17.8386 19.0641 18.2072C18.8645 18.5758 18.5837 18.8765 18.2218 19.1093C18.2904 19.2193 18.3372 19.3389 18.3622 19.4683C18.3871 19.5976 18.3996 19.7269 18.3996 19.8563C18.3996 20.2184 18.3185 20.5514 18.1563 20.8554C18.0003 21.1593 17.7819 21.4051 17.5012 21.5926C17.2266 21.7801 16.9116 21.8868 16.5559 21.9127C16.1566 21.945 15.7323 21.9677 15.2831 21.9806C14.8339 21.9935 14.4346 22 14.0852 22C13.8481 22 13.6047 21.9741 13.3552 21.9224C13.1056 21.8707 12.8747 21.7995 12.6626 21.709C12.4505 21.6185 12.2727 21.5215 12.1292 21.418C10.9936 21.4245 9.94541 21.2499 8.98456 20.8942C8.02995 20.545 7.16269 20.0115 6.38278 19.2937L3.75292 19.8854C3.6531 19.9048 3.54703 19.9209 3.43472 19.9339C3.32241 19.9533 3.21947 19.963 3.12588 19.963ZM3.15395 18.4691C3.18515 18.4691 3.23195 18.4659 3.29434 18.4594C3.35673 18.453 3.42224 18.4433 3.49088 18.4303L5.36266 18.0326C5.3377 17.9874 5.30962 17.9324 5.27843 17.8677C5.25347 17.8031 5.24099 17.7384 5.24099 17.6737C5.24099 17.4668 5.31586 17.2922 5.46561 17.1499C5.61535 17.0012 5.79317 16.9268 5.99906 16.9268C6.22992 16.9268 6.43581 17.0432 6.61675 17.276C7.00359 17.8192 7.42474 18.2751 7.88021 18.6437C8.34191 19.0123 8.86913 19.2969 9.46186 19.4974C10.0608 19.7043 10.7565 19.8336 11.5489 19.8854C11.5427 19.8466 11.5364 19.8078 11.5302 19.769C11.5302 19.7302 11.5302 19.6881 11.5302 19.6429C11.5302 19.4553 11.5676 19.2678 11.6425 19.0802C11.7174 18.8992 11.8297 18.744 11.9794 18.6146C11.786 18.4077 11.6331 18.1684 11.5208 17.8968C11.4148 17.6252 11.3617 17.3407 11.3617 17.0432C11.3617 16.4806 11.5427 15.9891 11.9045 15.5688C11.63 15.3618 11.4148 15.1064 11.2588 14.8025C11.109 14.4921 11.0342 14.159 11.0342 13.8034C11.0342 13.2343 11.2681 12.7363 11.7361 12.3095C11.4678 12.0832 11.2713 11.8213 11.1465 11.5238C11.0279 11.2263 10.9686 10.903 10.9686 10.5538C10.9686 9.57731 11.3461 8.85626 12.1011 8.39065C11.9077 8.22252 11.7548 8.01235 11.6425 7.76014C11.5364 7.50147 11.4834 7.22987 11.4834 6.94533C11.4834 6.69312 11.5052 6.42798 11.5489 6.14991C11.5988 5.86537 11.6456 5.57114 11.6893 5.2672C11.7392 4.95679 11.7642 4.63992 11.7642 4.31658C11.7642 3.73457 11.6799 3.23339 11.5115 2.81305C11.3492 2.38624 11.1184 2.05967 10.8189 1.83333C10.5194 1.60053 10.1731 1.48413 9.78007 1.48413C9.36827 1.48413 9.16238 1.72016 9.16238 2.19224C9.16238 2.35391 9.18733 2.58671 9.23725 2.89065C9.28716 3.18812 9.33708 3.51793 9.38699 3.88007C9.44314 4.23574 9.47122 4.58818 9.47122 4.93739C9.47122 5.5388 9.38699 6.07231 9.21853 6.53792C9.05631 6.99706 8.84105 7.4174 8.57277 7.79894C8.31072 8.17402 8.02059 8.52969 7.70239 8.86596C7.39042 9.20223 7.07846 9.53851 6.7665 9.87478C6.46077 10.2111 6.18936 10.5764 5.95227 10.9709C5.88988 11.0744 5.79629 11.1617 5.6715 11.2328C5.55296 11.3039 5.42505 11.3395 5.28779 11.3395C5.1318 11.3395 4.98518 11.291 4.84792 11.194C4.71689 11.097 4.62642 10.9677 4.57651 10.806L3.03229 10.7381C2.87631 10.7252 2.75464 10.7381 2.66729 10.7769C2.57994 10.8157 2.48011 10.9192 2.36781 11.0873C2.08704 11.5076 1.8593 12.0185 1.6846 12.6199C1.51614 13.2149 1.43191 13.8325 1.43191 14.4727C1.43191 14.9835 1.47871 15.4782 1.5723 15.9568C1.67213 16.4353 1.80315 16.8654 1.96537 17.2469C2.13383 17.622 2.32101 17.9195 2.52691 18.1393C2.7328 18.3592 2.94182 18.4691 3.15395 18.4691ZM13.7857 11.5917C14.4158 11.5917 15.0304 11.5788 15.6294 11.5529C16.2284 11.5206 16.8367 11.4785 17.4544 11.4268C17.7289 11.3945 17.9504 11.2813 18.1189 11.0873C18.2936 10.8868 18.3809 10.6508 18.3809 10.3792C18.3809 10.1917 18.3341 10.0203 18.2405 9.86508C18.1532 9.70988 18.0346 9.58377 17.8849 9.48677C17.7351 9.38977 17.5667 9.34127 17.3795 9.34127C16.5746 9.34127 15.8946 9.34774 15.3393 9.36067C14.7902 9.3736 14.3379 9.393 13.9822 9.41887C13.4332 9.45767 13.0276 9.56437 12.7656 9.73898C12.5097 9.90711 12.3818 10.1593 12.3818 10.4956C12.3818 11.2263 12.8498 11.5917 13.7857 11.5917ZM13.168 14.5794C13.6297 14.6246 14.0446 14.6634 14.4127 14.6958C14.7808 14.7216 15.1365 14.741 15.4796 14.754C15.8228 14.7604 16.1753 14.7604 16.5372 14.754C16.8991 14.7475 17.3046 14.7346 17.7539 14.7152C17.9722 14.7087 18.1625 14.6149 18.3248 14.4339C18.487 14.2463 18.5681 14.0297 18.5681 13.784C18.5681 13.6029 18.5244 13.4412 18.4371 13.2989C18.356 13.1502 18.2499 13.0338 18.1189 12.9497C17.9878 12.8657 17.8475 12.8333 17.6977 12.8527C16.9802 12.9239 16.2377 12.9724 15.4703 12.9982C14.7091 13.0241 13.9448 13.0273 13.1774 13.0079C12.9777 13.0015 12.8092 13.0661 12.672 13.2019C12.5347 13.3377 12.4598 13.5156 12.4474 13.7355C12.4411 13.9683 12.5066 14.1623 12.6439 14.3175C12.7812 14.4727 12.9559 14.56 13.168 14.5794ZM13.6547 17.9647C13.898 17.9841 14.2006 18.0003 14.5625 18.0132C14.9243 18.0197 15.3205 18.0197 15.7511 18.0132C16.1816 18.0003 16.6152 17.9809 17.0519 17.955C17.3202 17.9292 17.5355 17.8386 17.6977 17.6834C17.8599 17.5218 17.941 17.3148 17.941 17.0626C17.941 16.7975 17.8599 16.5744 17.6977 16.3933C17.5355 16.2122 17.3265 16.1282 17.0707 16.1411C16.6838 16.154 16.3157 16.1637 15.9663 16.1702C15.6231 16.1767 15.2675 16.1734 14.8994 16.1605C14.5313 16.1476 14.1195 16.1217 13.664 16.0829C13.4332 16.0635 13.2273 16.1443 13.0463 16.3254C12.8716 16.5065 12.7843 16.7296 12.7843 16.9947C12.7843 17.2598 12.8623 17.4797 13.0182 17.6543C13.1742 17.8289 13.3864 17.9324 13.6547 17.9647ZM13.898 20.5353C14.1725 20.5417 14.4751 20.5417 14.8058 20.5353C15.1365 20.5353 15.4547 20.5256 15.7604 20.5062C16.0661 20.4932 16.3188 20.4706 16.5185 20.4383C16.818 20.3995 16.9677 20.2249 16.9677 19.9145C16.9677 19.7657 16.9147 19.6429 16.8086 19.5459C16.7025 19.4553 16.5653 19.4165 16.3968 19.4295C15.9601 19.4424 15.4921 19.4456 14.993 19.4392C14.4938 19.4392 13.9916 19.4262 13.4862 19.4004C13.3365 19.3874 13.2085 19.4262 13.1025 19.5168C13.0027 19.6138 12.9527 19.7302 12.9527 19.866C12.9527 20.2798 13.2678 20.5029 13.898 20.5353Z" fill="#5816F0"/>
</svg>
