<svg width="42" height="32" viewBox="0 0 42 32" fill="none" xmlns="http://www.w3.org/2000/svg">
<path d="M1.5957 27.7173C1.5957 29.476 3.02137 30.9016 4.77999 30.9016H37.2201C38.9784 30.9016 40.4043 29.476 40.4043 27.7173V21.8592C37.8241 21.1598 35.9263 18.8015 35.9263 16.0001C35.9263 13.1987 37.8241 10.8404 40.4043 10.141V4.28292C40.4043 2.5243 38.9784 1.09863 37.2201 1.09863H4.77999C3.02137 1.09863 1.5957 2.5243 1.5957 4.28292V10.1277C4.20112 10.8102 6.12334 13.1807 6.12334 16.0001C6.12334 18.8195 4.20112 21.19 1.5957 21.8725V27.7173Z" fill="#D7E0FF"/>
<path d="M1.5957 27.7173C1.5957 29.476 3.02137 30.9016 4.77999 30.9016H37.2201C38.9784 30.9016 40.4043 29.476 40.4043 27.7173V21.8592C37.8241 21.1598 35.9263 18.8015 35.9263 16.0001C35.9263 13.1987 37.8241 10.8404 40.4043 10.141V4.28292C40.4043 2.5243 38.9784 1.09863 37.2201 1.09863H4.77999C3.02137 1.09863 1.5957 2.5243 1.5957 4.28292V10.1277C4.20112 10.8102 6.12334 13.1807 6.12334 16.0001C6.12334 18.8195 4.20112 21.19 1.5957 21.8725V27.7173Z" stroke="#5816F0" stroke-width="2" stroke-linecap="round" stroke-linejoin="round"/>
<path d="M27.7168 1.12305V6.34728" stroke="#5816F0" stroke-width="2" stroke-linecap="round" stroke-linejoin="round"/>
<path d="M27.7168 13.3877V18.6119" stroke="#5816F0" stroke-width="2" stroke-linecap="round" stroke-linejoin="round"/>
<path d="M27.7168 25.6777V30.9019" stroke="#5816F0" stroke-width="2" stroke-linecap="round" stroke-linejoin="round"/>
</svg>
