<svg width="46" height="46" viewBox="0 0 46 46" fill="none" xmlns="http://www.w3.org/2000/svg">
<rect x="3" y="3" width="40" height="40" rx="20" fill="#F4EBFF"/>
<rect x="3" y="3" width="40" height="40" rx="20" stroke="#F9F5FF" stroke-width="6"/>
<g clip-path="url(#clip0_483_620)">
<path d="M26.3333 26.3333L23 23M23 23L19.6666 26.3333M23 23V30.5M29.9916 28.325C30.8044 27.8819 31.4465 27.1807 31.8165 26.3322C32.1866 25.4836 32.2635 24.536 32.0351 23.6389C31.8068 22.7418 31.2862 21.9463 30.5555 21.3779C29.8248 20.8095 28.9257 20.5006 28 20.5H26.95C26.6977 19.5244 26.2276 18.6186 25.5749 17.8508C24.9222 17.083 24.104 16.4732 23.1817 16.0672C22.2594 15.6611 21.2571 15.4695 20.2501 15.5066C19.243 15.5437 18.2575 15.8086 17.3676 16.2814C16.4777 16.7542 15.7066 17.4226 15.1122 18.2363C14.5177 19.05 14.1155 19.9879 13.9358 20.9795C13.756 21.971 13.8034 22.9904 14.0743 23.961C14.3452 24.9317 14.8327 25.8282 15.5 26.5833" stroke="#7F56D9" stroke-width="1.66667" stroke-linecap="round" stroke-linejoin="round"/>
</g>
<defs>
<clipPath id="clip0_483_620">
<rect width="20" height="20" fill="white" transform="translate(13 13)"/>
</clipPath>
</defs>
</svg>
