<svg width="24" height="24" viewBox="0 0 24 24" fill="none" xmlns="http://www.w3.org/2000/svg">
<path fill-rule="evenodd" clip-rule="evenodd" d="M22.3299 12C22.3324 11.5649 22.1876 11.1418 21.9191 10.7995C20.2473 8.77588 16.4421 4.83533 12 4.83533C7.55795 4.83533 3.75273 8.77588 2.08098 10.7995C1.8122 11.1417 1.6674 11.5649 1.67021 12C1.67021 12.4442 1.81668 12.8709 2.08098 13.2004C3.75273 15.2241 7.55795 19.1646 12 19.1646C16.4421 19.1646 20.2473 15.2241 21.9191 13.2004C22.1834 12.8709 22.3299 12.4442 22.3299 12ZM15.1843 12C15.1843 12.8445 14.8488 13.6544 14.2517 14.2516C13.6545 14.8488 12.8446 15.1843 12 15.1843C11.1555 15.1843 10.3456 14.8488 9.7484 14.2516C9.15123 13.6544 8.81574 12.8445 8.81574 12C8.81574 11.1554 9.15123 10.3455 9.7484 9.74834C10.3456 9.15117 11.1555 8.81568 12 8.81568C12.8446 8.81568 13.6545 9.15117 14.2517 9.74834C14.8488 10.3455 15.1843 11.1554 15.1843 12Z" fill="#D7E0FF"/>
<path d="M21.9191 10.7995C22.1834 11.1291 22.3299 11.5574 22.3299 12C22.3299 12.4442 22.1834 12.8709 21.9191 13.2004C20.2473 15.2241 16.4421 19.1646 12 19.1646C7.55795 19.1646 3.75273 15.2241 2.08098 13.2004C1.8122 12.8583 1.6674 12.4351 1.67021 12C1.67021 11.5574 1.81668 11.1291 2.08098 10.7995C3.75273 8.77588 7.55795 4.83533 12 4.83533C16.4421 4.83533 20.2473 8.77588 21.9191 10.7995Z" stroke="#4147D5" stroke-width="1.71" stroke-linecap="round" stroke-linejoin="round"/>
<path d="M12 15.1842C12.8445 15.1842 13.6544 14.8488 14.2516 14.2516C14.8488 13.6544 15.1842 12.8445 15.1842 12C15.1842 11.1554 14.8488 10.3455 14.2516 9.74833C13.6544 9.15116 12.8445 8.81567 12 8.81567C11.1554 8.81567 10.3455 9.15116 9.74833 9.74833C9.15116 10.3455 8.81567 11.1554 8.81567 12C8.81567 12.8445 9.15116 13.6544 9.74833 14.2516C10.3455 14.8488 11.1554 15.1842 12 15.1842Z" fill="white"/>
<path d="M12 15.1842C12.8445 15.1842 13.6544 14.8488 14.2516 14.2516C14.8488 13.6544 15.1842 12.8445 15.1842 12C15.1842 11.1554 14.8488 10.3455 14.2516 9.74833C13.6544 9.15116 12.8445 8.81567 12 8.81567C11.1554 8.81567 10.3455 9.15116 9.74833 9.74833C9.15116 10.3455 8.81567 11.1554 8.81567 12C8.81567 12.8445 9.15116 13.6544 9.74833 14.2516C10.3455 14.8488 11.1554 15.1842 12 15.1842Z" stroke="#4147D5" stroke-width="1.71" stroke-linecap="round" stroke-linejoin="round"/>
</svg>
